<mxfile host="app.diagrams.net" agent="Mozilla/5.0 (Windows NT 10.0; Win64; x64; rv:131.0) Gecko/20100101 Firefox/131.0" version="24.7.16">
  <diagram name="PÃ¡gina-1" id="aJU37wdGgN558iF1d57T">
    <mxGraphModel dx="2796" dy="854" grid="1" gridSize="10" guides="1" tooltips="1" connect="1" arrows="1" fold="1" page="1" pageScale="1" pageWidth="827" pageHeight="1169" math="0" shadow="0">
      <root>
        <mxCell id="0" />
        <mxCell id="1" parent="0" />
        <mxCell id="IwiJIAZu2RHVefeSt08b-1" style="edgeStyle=orthogonalEdgeStyle;rounded=0;orthogonalLoop=1;jettySize=auto;html=1;entryX=0.5;entryY=0;entryDx=0;entryDy=0;" edge="1" parent="1" source="IwiJIAZu2RHVefeSt08b-3" target="IwiJIAZu2RHVefeSt08b-9">
          <mxGeometry relative="1" as="geometry" />
        </mxCell>
        <mxCell id="IwiJIAZu2RHVefeSt08b-2" style="edgeStyle=orthogonalEdgeStyle;rounded=0;orthogonalLoop=1;jettySize=auto;html=1;entryX=0.5;entryY=0;entryDx=0;entryDy=0;" edge="1" parent="1" source="IwiJIAZu2RHVefeSt08b-3" target="IwiJIAZu2RHVefeSt08b-7">
          <mxGeometry relative="1" as="geometry" />
        </mxCell>
        <mxCell id="IwiJIAZu2RHVefeSt08b-3" value="10" style="shape=process;whiteSpace=wrap;html=1;backgroundOutline=1;" vertex="1" parent="1">
          <mxGeometry x="360" y="90" width="90" height="50" as="geometry" />
        </mxCell>
        <mxCell id="IwiJIAZu2RHVefeSt08b-4" style="edgeStyle=orthogonalEdgeStyle;rounded=0;orthogonalLoop=1;jettySize=auto;html=1;entryX=0.5;entryY=0;entryDx=0;entryDy=0;" edge="1" parent="1" source="IwiJIAZu2RHVefeSt08b-7" target="IwiJIAZu2RHVefeSt08b-12">
          <mxGeometry relative="1" as="geometry" />
        </mxCell>
        <mxCell id="IwiJIAZu2RHVefeSt08b-5" style="edgeStyle=orthogonalEdgeStyle;rounded=0;orthogonalLoop=1;jettySize=auto;html=1;entryX=0.5;entryY=0;entryDx=0;entryDy=0;" edge="1" parent="1" source="IwiJIAZu2RHVefeSt08b-7" target="IwiJIAZu2RHVefeSt08b-14">
          <mxGeometry relative="1" as="geometry" />
        </mxCell>
        <mxCell id="IwiJIAZu2RHVefeSt08b-6" style="edgeStyle=orthogonalEdgeStyle;rounded=0;orthogonalLoop=1;jettySize=auto;html=1;exitX=0.5;exitY=0;exitDx=0;exitDy=0;" edge="1" parent="1" source="IwiJIAZu2RHVefeSt08b-7">
          <mxGeometry relative="1" as="geometry">
            <mxPoint x="245" y="190" as="targetPoint" />
          </mxGeometry>
        </mxCell>
        <mxCell id="IwiJIAZu2RHVefeSt08b-7" value="5" style="shape=process;whiteSpace=wrap;html=1;backgroundOutline=1;" vertex="1" parent="1">
          <mxGeometry x="200" y="180" width="90" height="50" as="geometry" />
        </mxCell>
        <mxCell id="IwiJIAZu2RHVefeSt08b-8" style="edgeStyle=orthogonalEdgeStyle;rounded=0;orthogonalLoop=1;jettySize=auto;html=1;entryX=0.5;entryY=0;entryDx=0;entryDy=0;" edge="1" parent="1" source="IwiJIAZu2RHVefeSt08b-9" target="IwiJIAZu2RHVefeSt08b-17">
          <mxGeometry relative="1" as="geometry" />
        </mxCell>
        <mxCell id="IwiJIAZu2RHVefeSt08b-9" value="15" style="shape=process;whiteSpace=wrap;html=1;backgroundOutline=1;" vertex="1" parent="1">
          <mxGeometry x="530" y="180" width="90" height="50" as="geometry" />
        </mxCell>
        <mxCell id="IwiJIAZu2RHVefeSt08b-10" style="edgeStyle=orthogonalEdgeStyle;rounded=0;orthogonalLoop=1;jettySize=auto;html=1;entryX=0.5;entryY=0;entryDx=0;entryDy=0;" edge="1" parent="1" source="IwiJIAZu2RHVefeSt08b-12" target="IwiJIAZu2RHVefeSt08b-20">
          <mxGeometry relative="1" as="geometry" />
        </mxCell>
        <mxCell id="IwiJIAZu2RHVefeSt08b-11" style="edgeStyle=orthogonalEdgeStyle;rounded=0;orthogonalLoop=1;jettySize=auto;html=1;" edge="1" parent="1" source="IwiJIAZu2RHVefeSt08b-12">
          <mxGeometry relative="1" as="geometry">
            <mxPoint x="210" y="340" as="targetPoint" />
          </mxGeometry>
        </mxCell>
        <mxCell id="IwiJIAZu2RHVefeSt08b-12" value="3" style="shape=process;whiteSpace=wrap;html=1;backgroundOutline=1;" vertex="1" parent="1">
          <mxGeometry x="80" y="270" width="80" height="50" as="geometry" />
        </mxCell>
        <mxCell id="IwiJIAZu2RHVefeSt08b-13" style="edgeStyle=orthogonalEdgeStyle;rounded=0;orthogonalLoop=1;jettySize=auto;html=1;exitX=1;exitY=0.5;exitDx=0;exitDy=0;" edge="1" parent="1" source="IwiJIAZu2RHVefeSt08b-14" target="IwiJIAZu2RHVefeSt08b-32">
          <mxGeometry relative="1" as="geometry" />
        </mxCell>
        <mxCell id="IwiJIAZu2RHVefeSt08b-14" value="7" style="shape=process;whiteSpace=wrap;html=1;backgroundOutline=1;" vertex="1" parent="1">
          <mxGeometry x="310" y="270" width="80" height="50" as="geometry" />
        </mxCell>
        <mxCell id="IwiJIAZu2RHVefeSt08b-15" style="edgeStyle=orthogonalEdgeStyle;rounded=0;orthogonalLoop=1;jettySize=auto;html=1;exitX=0.5;exitY=1;exitDx=0;exitDy=0;" edge="1" parent="1" source="IwiJIAZu2RHVefeSt08b-9" target="IwiJIAZu2RHVefeSt08b-9">
          <mxGeometry relative="1" as="geometry" />
        </mxCell>
        <mxCell id="IwiJIAZu2RHVefeSt08b-16" style="edgeStyle=orthogonalEdgeStyle;rounded=0;orthogonalLoop=1;jettySize=auto;html=1;" edge="1" parent="1" source="IwiJIAZu2RHVefeSt08b-17" target="IwiJIAZu2RHVefeSt08b-34">
          <mxGeometry relative="1" as="geometry" />
        </mxCell>
        <mxCell id="IwiJIAZu2RHVefeSt08b-17" value="12" style="shape=process;whiteSpace=wrap;html=1;backgroundOutline=1;" vertex="1" parent="1">
          <mxGeometry x="440" y="260" width="70" height="40" as="geometry" />
        </mxCell>
        <mxCell id="IwiJIAZu2RHVefeSt08b-18" value="18" style="shape=process;whiteSpace=wrap;html=1;backgroundOutline=1;" vertex="1" parent="1">
          <mxGeometry x="650" y="260" width="90" height="60" as="geometry" />
        </mxCell>
        <mxCell id="IwiJIAZu2RHVefeSt08b-19" style="edgeStyle=orthogonalEdgeStyle;rounded=0;orthogonalLoop=1;jettySize=auto;html=1;entryX=0.589;entryY=-0.033;entryDx=0;entryDy=0;entryPerimeter=0;" edge="1" parent="1" source="IwiJIAZu2RHVefeSt08b-9" target="IwiJIAZu2RHVefeSt08b-18">
          <mxGeometry relative="1" as="geometry" />
        </mxCell>
        <mxCell id="IwiJIAZu2RHVefeSt08b-20" value="2" style="shape=process;whiteSpace=wrap;html=1;backgroundOutline=1;" vertex="1" parent="1">
          <mxGeometry x="-50" y="340" width="90" height="60" as="geometry" />
        </mxCell>
        <mxCell id="IwiJIAZu2RHVefeSt08b-21" style="edgeStyle=orthogonalEdgeStyle;rounded=0;orthogonalLoop=1;jettySize=auto;html=1;exitX=0.5;exitY=1;exitDx=0;exitDy=0;" edge="1" parent="1" source="IwiJIAZu2RHVefeSt08b-23" target="IwiJIAZu2RHVefeSt08b-30">
          <mxGeometry relative="1" as="geometry" />
        </mxCell>
        <mxCell id="IwiJIAZu2RHVefeSt08b-22" style="edgeStyle=orthogonalEdgeStyle;rounded=0;orthogonalLoop=1;jettySize=auto;html=1;exitX=1;exitY=0.75;exitDx=0;exitDy=0;" edge="1" parent="1" source="IwiJIAZu2RHVefeSt08b-23" target="IwiJIAZu2RHVefeSt08b-31">
          <mxGeometry relative="1" as="geometry" />
        </mxCell>
        <mxCell id="IwiJIAZu2RHVefeSt08b-23" value="6" style="shape=process;whiteSpace=wrap;html=1;backgroundOutline=1;" vertex="1" parent="1">
          <mxGeometry x="230" y="340" width="70" height="60" as="geometry" />
        </mxCell>
        <mxCell id="IwiJIAZu2RHVefeSt08b-24" style="edgeStyle=orthogonalEdgeStyle;rounded=0;orthogonalLoop=1;jettySize=auto;html=1;entryX=0.4;entryY=0;entryDx=0;entryDy=0;entryPerimeter=0;" edge="1" parent="1" source="IwiJIAZu2RHVefeSt08b-14" target="IwiJIAZu2RHVefeSt08b-23">
          <mxGeometry relative="1" as="geometry" />
        </mxCell>
        <mxCell id="IwiJIAZu2RHVefeSt08b-25" value="4" style="shape=process;whiteSpace=wrap;html=1;backgroundOutline=1;" vertex="1" parent="1">
          <mxGeometry x="150" y="340" width="70" height="60" as="geometry" />
        </mxCell>
        <mxCell id="IwiJIAZu2RHVefeSt08b-26" value="&lt;span style=&quot;color: rgb(255, 51, 51);&quot;&gt;NULL&lt;/span&gt;" style="text;html=1;align=center;verticalAlign=middle;resizable=0;points=[];autosize=1;strokeColor=none;fillColor=none;" vertex="1" parent="1">
          <mxGeometry x="-140" y="408" width="50" height="30" as="geometry" />
        </mxCell>
        <mxCell id="IwiJIAZu2RHVefeSt08b-27" value="&lt;span style=&quot;color: rgb(255, 51, 51);&quot;&gt;NULL&lt;/span&gt;" style="text;html=1;align=center;verticalAlign=middle;resizable=0;points=[];autosize=1;strokeColor=none;fillColor=none;" vertex="1" parent="1">
          <mxGeometry x="25" y="408" width="50" height="30" as="geometry" />
        </mxCell>
        <mxCell id="IwiJIAZu2RHVefeSt08b-28" value="&lt;span style=&quot;color: rgb(255, 51, 51);&quot;&gt;NULL&lt;/span&gt;" style="text;html=1;align=center;verticalAlign=middle;resizable=0;points=[];autosize=1;strokeColor=none;fillColor=none;" vertex="1" parent="1">
          <mxGeometry x="105" y="448" width="50" height="30" as="geometry" />
        </mxCell>
        <mxCell id="IwiJIAZu2RHVefeSt08b-29" value="&lt;span style=&quot;color: rgb(255, 51, 51);&quot;&gt;NULL&lt;/span&gt;" style="text;html=1;align=center;verticalAlign=middle;resizable=0;points=[];autosize=1;strokeColor=none;fillColor=none;" vertex="1" parent="1">
          <mxGeometry x="195" y="448" width="50" height="30" as="geometry" />
        </mxCell>
        <mxCell id="IwiJIAZu2RHVefeSt08b-30" value="&lt;span style=&quot;color: rgb(255, 51, 51);&quot;&gt;NULL&lt;/span&gt;" style="text;html=1;align=center;verticalAlign=middle;resizable=0;points=[];autosize=1;strokeColor=none;fillColor=none;" vertex="1" parent="1">
          <mxGeometry x="265" y="448" width="50" height="30" as="geometry" />
        </mxCell>
        <mxCell id="IwiJIAZu2RHVefeSt08b-31" value="&lt;span style=&quot;color: rgb(255, 51, 51);&quot;&gt;NULL&lt;/span&gt;" style="text;html=1;align=center;verticalAlign=middle;resizable=0;points=[];autosize=1;strokeColor=none;fillColor=none;" vertex="1" parent="1">
          <mxGeometry x="335" y="448" width="50" height="30" as="geometry" />
        </mxCell>
        <mxCell id="IwiJIAZu2RHVefeSt08b-32" value="&lt;span style=&quot;color: rgb(255, 51, 51);&quot;&gt;NULL&lt;/span&gt;" style="text;html=1;align=center;verticalAlign=middle;resizable=0;points=[];autosize=1;strokeColor=none;fillColor=none;" vertex="1" parent="1">
          <mxGeometry x="375" y="348" width="50" height="30" as="geometry" />
        </mxCell>
        <mxCell id="IwiJIAZu2RHVefeSt08b-33" value="&lt;span style=&quot;color: rgb(255, 51, 51);&quot;&gt;NULL&lt;/span&gt;" style="text;html=1;align=center;verticalAlign=middle;resizable=0;points=[];autosize=1;strokeColor=none;fillColor=none;" vertex="1" parent="1">
          <mxGeometry x="495" y="338" width="50" height="30" as="geometry" />
        </mxCell>
        <mxCell id="IwiJIAZu2RHVefeSt08b-34" value="&#xa;&lt;span style=&quot;color: rgb(255, 51, 51); font-family: Helvetica; font-size: 12px; font-style: normal; font-variant-ligatures: normal; font-variant-caps: normal; font-weight: 400; letter-spacing: normal; orphans: 2; text-align: center; text-indent: 0px; text-transform: none; widows: 2; word-spacing: 0px; -webkit-text-stroke-width: 0px; white-space: nowrap; background-color: rgb(251, 251, 251); text-decoration-thickness: initial; text-decoration-style: initial; text-decoration-color: initial; display: inline !important; float: none;&quot;&gt;NULL&lt;/span&gt;&#xa;&#xa;" style="text;html=1;align=center;verticalAlign=middle;resizable=0;points=[];autosize=1;strokeColor=none;fillColor=none;" vertex="1" parent="1">
          <mxGeometry x="425" y="340" width="50" height="60" as="geometry" />
        </mxCell>
        <mxCell id="IwiJIAZu2RHVefeSt08b-35" value="&lt;span style=&quot;color: rgb(255, 51, 51);&quot;&gt;NULL&lt;/span&gt;" style="text;html=1;align=center;verticalAlign=middle;resizable=0;points=[];autosize=1;strokeColor=none;fillColor=none;" vertex="1" parent="1">
          <mxGeometry x="615" y="338" width="50" height="30" as="geometry" />
        </mxCell>
        <mxCell id="IwiJIAZu2RHVefeSt08b-36" value="&lt;span style=&quot;color: rgb(255, 51, 51);&quot;&gt;NULL&lt;/span&gt;" style="text;html=1;align=center;verticalAlign=middle;resizable=0;points=[];autosize=1;strokeColor=none;fillColor=none;" vertex="1" parent="1">
          <mxGeometry x="715" y="338" width="50" height="30" as="geometry" />
        </mxCell>
        <mxCell id="IwiJIAZu2RHVefeSt08b-37" style="edgeStyle=orthogonalEdgeStyle;rounded=0;orthogonalLoop=1;jettySize=auto;html=1;entryX=0.62;entryY=0.1;entryDx=0;entryDy=0;entryPerimeter=0;" edge="1" parent="1" source="IwiJIAZu2RHVefeSt08b-20" target="IwiJIAZu2RHVefeSt08b-26">
          <mxGeometry relative="1" as="geometry" />
        </mxCell>
        <mxCell id="IwiJIAZu2RHVefeSt08b-38" style="edgeStyle=orthogonalEdgeStyle;rounded=0;orthogonalLoop=1;jettySize=auto;html=1;exitX=1;exitY=0.5;exitDx=0;exitDy=0;entryX=0.66;entryY=0.1;entryDx=0;entryDy=0;entryPerimeter=0;" edge="1" parent="1" source="IwiJIAZu2RHVefeSt08b-20" target="IwiJIAZu2RHVefeSt08b-27">
          <mxGeometry relative="1" as="geometry" />
        </mxCell>
        <mxCell id="IwiJIAZu2RHVefeSt08b-39" style="edgeStyle=orthogonalEdgeStyle;rounded=0;orthogonalLoop=1;jettySize=auto;html=1;entryX=0.52;entryY=0.167;entryDx=0;entryDy=0;entryPerimeter=0;" edge="1" parent="1" source="IwiJIAZu2RHVefeSt08b-25" target="IwiJIAZu2RHVefeSt08b-28">
          <mxGeometry relative="1" as="geometry" />
        </mxCell>
        <mxCell id="IwiJIAZu2RHVefeSt08b-40" style="edgeStyle=orthogonalEdgeStyle;rounded=0;orthogonalLoop=1;jettySize=auto;html=1;exitX=0.75;exitY=1;exitDx=0;exitDy=0;entryX=0.58;entryY=0.167;entryDx=0;entryDy=0;entryPerimeter=0;" edge="1" parent="1" source="IwiJIAZu2RHVefeSt08b-25" target="IwiJIAZu2RHVefeSt08b-29">
          <mxGeometry relative="1" as="geometry" />
        </mxCell>
        <mxCell id="IwiJIAZu2RHVefeSt08b-41" style="edgeStyle=orthogonalEdgeStyle;rounded=0;orthogonalLoop=1;jettySize=auto;html=1;entryX=0.56;entryY=0.033;entryDx=0;entryDy=0;entryPerimeter=0;" edge="1" parent="1" source="IwiJIAZu2RHVefeSt08b-17" target="IwiJIAZu2RHVefeSt08b-33">
          <mxGeometry relative="1" as="geometry" />
        </mxCell>
        <mxCell id="IwiJIAZu2RHVefeSt08b-42" style="edgeStyle=orthogonalEdgeStyle;rounded=0;orthogonalLoop=1;jettySize=auto;html=1;entryX=0.3;entryY=0.133;entryDx=0;entryDy=0;entryPerimeter=0;" edge="1" parent="1" source="IwiJIAZu2RHVefeSt08b-18" target="IwiJIAZu2RHVefeSt08b-35">
          <mxGeometry relative="1" as="geometry" />
        </mxCell>
        <mxCell id="IwiJIAZu2RHVefeSt08b-43" style="edgeStyle=orthogonalEdgeStyle;rounded=0;orthogonalLoop=1;jettySize=auto;html=1;entryX=0.9;entryY=0.1;entryDx=0;entryDy=0;entryPerimeter=0;" edge="1" parent="1" source="IwiJIAZu2RHVefeSt08b-18" target="IwiJIAZu2RHVefeSt08b-36">
          <mxGeometry relative="1" as="geometry" />
        </mxCell>
        <mxCell id="IwiJIAZu2RHVefeSt08b-51" value="" style="shape=image;imageAspect=0;aspect=fixed;verticalLabelPosition=bottom;verticalAlign=top;image=data:image/png,iVBORw0KGgoAAAANSUhEUgAAAlAAAAFnCAYAAABpdXfNAAAAAXNSR0IArs4c6QAAAARnQU1BAACxjwv8YQUAAAAJcEhZcwAADsMAAA7DAcdvqGQAAF+ISURBVHhe7b29busw16a9khOZxkoR+Ai0i6+206Rym+IFlNJuUnxApnoCTJFGKWPgLXbrKk3sZtr4CIwUkZtp5jQ8/JNEUpREyvJf9n0B2jsSycXFRVpcIinxascgAAAAAADgzbX6HwAAAAAAeAIHCgAAAAAgEDhQAAAAAACBwIECAAAAAAgEDhQAAAAAQCBwoAAAAAAAAoEDBQAAAAAQCBwoAAAAHqzo8eqK/rxt1TkA/zbSgdq+0R/2w7h6XIlTAC6G1SNdFTf1Lb39eWS3eQBAr4g+4oVusx19TQfqIgD/NterR+Y4RTNaqwugZPv2h67+vLFu+VRwh+CKDuHXnr5s/bD62FCaZTRZPNDbNqNvNOQz4nDtFxyZwZS+dl/0b/pOcuTtWO34t9yb/wWux/NYdEBprK70jryJ8lEC/cBN9VI5p2H8Lf1s+P8Dmv6d0CIa0yZ9opEI+xcIqwtxY8YPTwBbhCEetM/+vu3qa/QR6S73Li5zTLTc0XvjjeUc7ott5T8npL2urv6wB191qSAPC9Q/n0nTjwM7ote7Iz1VxGlGfNu9/GhujOB8GdE7q7/zGMZnjtOXar/iCflfm144p7oAv5cVfbAH7SSJaf5x/k6n3tcskzmNi060y++F32N8+qvz+S3Wl/88EA8vVx90n6XkGrdZPY5pnixL/YO8dj4gVPoZu68pq8HDcfpF5JbXaNpK90StsMZ0OrZX3uDRGjIf6VNdLjH1sZ9gZcMo08vQpjRcN+6Bt3ncdeHHK1uJzFMGt+vvtgmnLj8lc5Xrm6cx45fRm9pBgH0EzfHry1ISXl6GWsdlHCJcptGjCvnFDdG3LmS8aLYmmo9FWPmkXK+XT3kby1WhKW6d/nqd8HAVvZOsPKzOFnpeepo+bBFaPh2ZRhdXbQeBsr3vn4zVB83jCT09TSief2hlV/lqv9X/8JGqSrn9bOySJ8Oa7NrM6D4hWn9TJs5k3jK5ysvZRhS1NnLpqcvmUQLs29u9uYpZ/rZ2pM6LvHR7mDr4lFOOWlo2ZQymX8y5ea+ZKZDOevokQ4X+Rps7M5iXxsh2aUw7SpbytFekbOYVq3Od5S6hhP2rWCY7Ks7tdCxunLKr6u/adDrVci0Tdl7I0bHyy9Id8461uA59WHghWsS3dWhJo8LtMpf6NoXbcQ9YNgMZV4YpHer0d9qE05SfLZPjiC905+m0eI7242cfTkv82rJodCov/zvelVUTazro8SQi3Ko3Ga70byi/KZvToJdPeZvSC6r6tcWt6K/FKeujo6wyQq0t9GtFfj3awq98NrYspb/VDvxlc3laeWrvnxKeVpbLLqOdL8OWJWyXt28V32VjceaQV8mzaosSO66SX0SW4fLUzkudF3GbbGSn5eiyQ+wr0xU6C3sx2ZZN+il/Na3RjkLuXyJNczlF3rXlZhhtQ2Ffc8WpI7eddrjt1B9Hc6D0QtUaVTeW+LvB+Dp1RnbJCIjb1riMm7AItyqsLY2yjZ7GdWN0hjtky/wOUDYDXacW/YVcyyacxvyqMl3xnYh4De1HD7dpiy/+dpRFpy6OQ3ZRXjuM34SK+m+54Rm2aqmL/NyM0KKXT3lr0suzUqeQuIqKvvkNuqusQFvIa6z+/zf/v0dbKGrLp05LQtqBxF82Iy9nbhwdK6wtX1tXI36TjWWEqrxWu+rI9GZfo8vT5dfYTGsjBm16Oq8pLBsa1JWvwWbdy9/SjkRejjI4dHDSVE4Xrvj2tVCZGqJsHdP6crQpPOa9lvOS+vCdPn2hvw2YfTe/GViXTsclY3BDQ/WnQVt+InxO4zxPdohpgBy+BidLaTOWYWLIui2Ng8GNU7uCIvyYZQvA0N9lE05ofk36h7SfOvtw2uLXlUWnS3lFHhv6UVFXH3Oi4U0v8/ZtbalZL4/yNqW3CYnbRgdZfrawyOv/f/Rsi3PA5/7J2H4uaB1P6E41yMHdhOL1gj4dJpCMSM668EmXLX0u1pQ8q3UoTTauo4Ndjb5G1ZvPrFeljXjayIlvWpdNdI5Y/ub7Vw372OjADKbPlDCNvuX85UE47RooPn865q+hl5XNPGBJdOtcYCZoSqfjkrH9Yd2Vg6b8OCI8IeaFl42TH/rqQt4AlT40i+jx/3qk6cqxy9YV2yb8hxyaX53+oe2nzj4cn/iustiEllfksWZR5U1oPGfx+rC7D2310FbetvQ6IXHb6FNWjpBpodd/n7Y4Nb73T+UA0XpGkdFJrmlR70HR6InJ4+tWtp+0WCd0n5ugzcYu9rXr4I4mLNNN/oTii7eNHISkddlE59jlr71/OdjHRnXYDrVw3oZ0c/q1+U5aHSi5EMxagNgXlnHE0478UxlyTi9Fxit6zBe7NaXTqchgUl7ZDUB7oiqw47LG8aB7+g5ZtYi4Md3+fwFpQjlV2bqS2yTK/w7IrxJftYWg9tNgH05IfL0sdehxHLILeBnUGyfy0BdXRnTL7kjFm092vXVh81MsGG3US6euvL7pOSFx2+hLVostnPXfhy2C6bkd+N4/V680W1tvNbEjS2PmU73WL+wVnTazxQOTm9yX7dnXxjr72lU4cXxQty6DGnxt5CIkrV2+vu/NRvkD2pHIt+7+5XH/ZdQtIm+G61g66GJEXmtDQqbzyVWG6UHbtxemdenAN6Xdh8qcqT5vKBeC7TOPKOdl9YVtOlK+OpJkpy+oZR7tjtV3Ea7PzTamM5DzvkXcujlujp4fj2esR+FYsthRlEusMXBcb0qjbGPMORt5toUfqWwGuk4t+tXahFOXn0Mmp6YtNLeDAPsIGuI3lkXRqbw8mXndyNcod7JbGvUWUBeCUodStxq9fMorqC9XVaeQuLzo1loPoVO+FiNMVidb5PEPYou28ll4twNJm2yf+6eIYxgxR5YzWTrsrJDrT1xhNTYW1MlrsquOTK/H40cpT5fvyMtqI/U2culpXvOxb0HP92Y9Hj8MPZvakWgjZTojjw73XxnmaM9WPvLQ7GPrqC5z6tskw9LRtGFL2o5c8X9YZmcMfz30gejvv/oVXFDy+9oCf204Wkwo075Xwp+UXm4zfN8JAABytm/0J/qm59pPIDSwT9oGTv8dqFYGdDehxjl38K/w+9pCxveeMRaN519XBwAAkMOnCCntttPEPmmbOO8RKOE1zmhNfB4eI1D/NL+2LfBRtYj0pQhxitEnAAA4dy5gCg8AAAAA4Ly4gCk8AAAAAIDzAg4UAAAAAEAgcKAAAAAAAAKBAwUAAAAAEAgcKAAAAACAQI7kQK3oUeylZG0Jw19Nz/dYyo98uxYf9I0Mvbeb4a+Na/lph3OTUCc15eEYOoXI5PjLDfoi/R468Q89lmlDt/TJbR2aDgAAADhvDu5AyQ74g+5rNxq09lrSvsjcDHM2Xm4pU+mWyZpmDz7O14CmX1p+/BC6xTSp3ZCppLk8TKcxlRs/LhNazx68nId2uXP+FXohl+9FNR/77jG0n07iK9l52l3Y95e2bw80E5YFAAAAfhcHd6AG0y/W8fb7+XTJiN41Z2t0nxCtvylT5yGIDS2TZy/noLk8TCc9bHRPzF2hbw+l2u1UbmA6uDH2q26hq04rYmah9K+vQ2uj0j9P1DkAAADweziDNVBrmkXl9FK3zZK39PZi7trszfaNXuYxpU/BKdvZ/tBGc3y6M6J7PsIW8VGnfDSqo1Pqq5OIR7R4KOsmZCdrvhP2Jv1L073LDgAAAJwfp3WgBlP6KqaH8qmpgPUyxdqeiGaUUvYe7lLwPXLW8YQ8Zu+CCRnZamP0zqcp5zS+GtM8Tqmrv+etU/bNXFuiyd+8fpaUzMd+Di5zSh9mQ3rGdiQAAAB+KWcwAlUymD57T3kJRu+l8zVZUBS8WJlPM60pee46TVUPXz803nRz6qqsxOJyvkM/L+tyOGNl9V0DVRKu05BuCsPwUTCi+Ud7rtxJO8TGjQAAAMC5cFYO1D4EO18MPs20z2hOHWLx9WxIS+8F8S2sPmjOSpeP6Izel+xsTh6+TEGwTtEtxbShn8Ih3dLPhihunftb0cecaD2L5Oig2ABYTtOGvZEIAAAAnC8ndaBWj+aaJ+HQMNfgXnNoeBzn2hv+CQT9unAyyrU9tekK5OhTPLmrOBTtaevhaeWba9U1SvvIJd2ZsdYxtcntpNPgjibxmhafKtPtJy3W5ZuK9XnyRevltGz+hiN/0/ILU3oAAAB+CYd3oPJ1StpIRP5doNFTSpsxP5dHXSfvhHfwm3GR9mq8YZ20/2v2ubMWvE6noTzcqeNr2WnNp9iUXvzw+bZVk9zROzE/RF2TcYZLz7J21mlA078i0/A8AQAAgF/O1Y4PE5wrfJQp+qZnX6cqp2s6zj5pmzhHuaewLwAAAPALOOs1UPwNuS6Lkbum4+yTtolzlHsK+wIAAAC/gfMegQIAAAAAOEN+zVt4AAAAAADHAg4UAAAAAEAgcKAAAAAAAAKBAwUAAAAAEAgcKAAAAACAQOBAAQAAAAAEAgcKAAAAACCQa77Lf7G9Bzs6b9UGAAAAAPCPcE3LcuPXZUI0H1+iE7Wltz8+est4f8QGc4fCV5fjsX3747cfXy0r4o72ubULUa7C+Vf7BgIAAABH4Ppd24+Db+4bs//nHwfoKfn+aUVnd5rRrtVjRItJRl9H3BFXdPKX55FqcIdwTNzR1tvK6VnRq9h8Wj0ALIc0ix7ZVQAAAODwHGcN1OpR7eZfjnbtspQ240OPBpmM3ndHdZ5+BwOafp2b88QZ0fvXlGmnGN1TQhv6wSgUAACAI2A6UNk3rdl/yX2fveWKHsdzitPM7IQHU/paJrSevapRg+o0UWXqyRrF8h/YkbKL0a+mhL55tMaTU3nRjFl0PhZxpLPYVk6e7g+9rXL5alQlpOxG3Ef6VJcL9i5jVcf/PLL/DUGy/KWDLM9zWUW5BDVlDqm31QfNaUg38I8BAAAcAc2BYp3Yy5yYp0NPffpP2x/aUEyTO0fPFt2yEN9RA9aZRt/0XEzZJMwv8Zmy4Z3zmDbMgZOjX0tKmEPj7ot98/CJJ0dusjRmHulSxPMf/VrTbJzLf6eRt14cVt6HGVFe3uyWFtyJK+irjKaO//OeL6D7KMO3n7RY5/XO6yCi2VDagR/LZE5jY12WXWa/eivWQTEnPVnydAAAAMDhKRwovj5oxjq89K82LdIbNSMDgxsW4suI3kXHqvB1vkRHntBz4byM6Ik5Ne51Xr55dNQlANMZCMjPLu9gSn+5E1fQXxkNHcUU2pxys24/F7SOJyT9J6nTUhuCFOvt1gv6rJMXUm/KQT2/aUYAAAC/FeFArR6viD3As37oiw6zRKius+ejUwHwtVT5dE40E9ONrYhpyTmN83TsENNqdfjm0UWXffDNT03DNnKQMo5IDkJxB2dLn4s1Jc/KGXfp1OY8e9bb4MbfBQcAAAD64ppPgUjn6UBP8KKjXNN3ps41xCiF77oVvh5nvKE0k1NAfBG6Pq5Sixg5SWgppoG0w1VY3zy66tKVkPxEeRs4YBnFqBKfxlOjR8VSOpdObc6zb72N3t11CQAAAByQa/5U3+Q88dGp/b6xo6ZexpYM1kE/iLzzaZuIblkvW0zRqPACMSJROlvS+fJAOHBzevEpgG8eobpsfrS1Pi3ldBGSn13ernbsYu/BHU1ilvcDi5vcl9NxjjpYvc7KKT4XnvVWedEAAAAAOAJiCo9/PLOYqhHHPg5TlcH0i+R3erQ81JRQuTB5QNO/fARDvrF2xRcwLxMRIhi9y4XHKn30PSQttAG+lmdJw1lU5s0O5+cTfPMI0GUwfaZkPaOoyLOlnC6Cys7Km6XEjC3lPxD97WLHTvYe0N0kpvWaOcbGm5zVOhhvUsr0zxBUCKg3AAAA4Mhc7fi8yCnh62zUZw7wjSYAAAAAXAKnd6AAAAAAAC4M80OaAAAAAACgFThQAAAAAACBwIECAAAAAAgEDhQAAAAAQCBwoAAAAAAAAoEDBQAAAAAQCBwoAAAAAIBA4EABAAAAAARy/ahtk4GtMgAAAAAA2rmmZbnTfZbGtJ5F9Kj2ub0ctvT25+oC9W7mXDbKPZQeQm7hvPe7/yIAAABwSK7ftT1fxca37P/NzwF6su0b/dFGuvjx2xweYOGo89IRW9HrYkKZct7lZtP5xtIAAADAeWOugdr+0Eb92St8w+BoRkNttGuXpbQZY8rw9xNTmmn1/jUluWX0iN6Lvxmje+a8b+gQvjsAAADQN5oDtaW3hxmtWTf2PC26tR5Y0eN4TnGakT7aRYMpfS0TWs9e1agDi2eNSlWmjqwRDf8RLDnFV46ENIx0cGdPy0McIiMu4w+9rXIdlIxanTzKY2PIeqRPdbnEpxxKz63M3x2vRU4vegSy+qA5Demmz6YHAAAAHIjrsiOMaLZOaLl7J93P2RsxqhXT5M7RM0a3LMR31IE5BNE3PecjGcz5mo99Om7e2bOyDZfFKMgymdPY6chwZ29TjJjwNWGUsHSF57em2TjXgdupq04umJ7MgWWZS1nZLS1maxXGCSkH0zP6oHsRL6M0ZvEKT65NTp96cLgupbNlO73FOijmZCfLntseAAAAcCCup1+yE+RHlm5ozDszu5fbm5qRhcENC/FlRO+6c+frfG0/acEdQ234a/SUUrxe0KedVjh7pa6DG6bd5sdwDMxOvqNOLpSexejfYEp/uQOXE1IORqnngO4mTE5ejjY5ferBRxlV25LtK2YOpmOxOHdSWbgmEgAAADhrjDVQg+kXLfkq8vlHx1GUOmqcitA1V/r0WsSnGz3Ivqvx6hw3cb3UdfUxZ77fTblOx0UXnVy49NQJKYeFcARz2uQcUg/xksKavjN1gWHoBgAAAFwIh/+QpuhczU4zZ/u5YCGe6174uhxteo0vQtfGReoRo0IWdY6buF5OOY3n5khLha46uXDpqRNSjiba5BxLj5zRuzZFCgAAAFwG18Z0yuqROQ3s/+S+mJZaPXJnYp9v9IzoyTV1w5yPh9lam2qK6Jb1zPMPNfalwgvEyEfpbEnnywPhwM3pRct89TqjdTyhyrIsnoeaTpKHPl3noFGnlvLY2Hra8UPK0USbnB714G3HXET/wlImdK8Z9VDfmAIAAAAOzU4/4jRjvkPJMuHX4511OZxlYuRTHsluqaLssnTHfI7yOk8Tp7s8a6mLOpJklxR6ZTvmo+2SQpDNksXV0moybYw8jLjuPOp1YrSUp4Ien8erxPcph0PPUDm96MEwyu+Ol6VxfXoAAADgTLni/7DO7XTwNUTqMwdfvX4+IRw+GhLxjztq3yfioygvt6fXDQAAAADnw+k3E+ZrYJgPdw4OSva9thaNb+mn8+IeAAAAAPxWTj8CdVaobxxpS37OYWQMAAAAAOcFHCgAAAAAgEBOP4UHAAAAAHBhwIECAAAAAAgEDhQAAAAAQCBwoAAAAAAAAoEDBQAAAAAQCBwoAAAAAIBACgdK7El2xfe9eyRt+zIAAAAAAGChHKgVvc7WFMexPL04+AcwzY1rfwPnstHuofQonfZ9N6wGAAAAjotwoFaPY5onS/o7EdcOw/aN/hSdpTx+m8MDHPC9Dos6150k5rTzfQd3O7GVz245pFmE0U8AAACXwTXv4MbzhJbvI3XpAPBONJrRcKk6S35kKW3GV/QHww6/mBU9vtwWTtIyWdPsIR/JGtG7tmkzje4poQ39oDkAAAC4AK4fx3NKlu+sOzsUrBNlefA95QwfbTClr2VC69mrGnVg8axRqcrUkTWK5T+CJaf4ypGQhpEOY8REHSIjLuMPva1yHZSMWp08ymNjyHqkT3W5xKccSs+tzN8dr0VOL3pwTCdpdJ8Qrb8pU+cGqw+a05BusO0gAACAC+B6Hqf0dMDBJ9r+0IZimtw5esboloX4jjowhyD6pud8BIs5X/NxXcetwzv7iGbDZTH6tUzmNHY6MtzZ21CayXhZGhPzLmlXeH5rmo1zHbjT2VUnF0zPhxmxzKWs7JYW+q7GQeVgekYfdC/iZZTGLF7hybXJ6VMPHZbuZc7seW8468U6qIM78gAAAEB/XKd/tWmUg1EzsjC4YSG+jOhdOC0KX+dr+0mLtTlFOXpKKV4v6NNOK5y9UtfBDdNu82M4BmYn31EnF0rP52me+ZT+cgcuJ6QcjFLPAd1NmJy8HG1yetajHNFjThellGnpCriTyhwxVxAAAABwjlzPonIqJhIjDXMa83P/+TEPapwK4bAEoE+vRTPSx0Vqyb6r8eocN3G91HX1MWe+302zg9lFJxcuPXVCymEhHMGcNjl96zF6L0aqssmCIuttO0M3AAAA4EK4zjs30cGJkYaElvy8r+EA0bmu6dux8GX7uWAhnute+LocbXqNL0LXxkXqEaNCFnWOm7jOp7+kQ9S6uL6rTi5ceuqElKOJNjkH1GMwfWaty2oL3MHC0BMAAIALo/VL5KtH7kzs842eET0xx2w+tmQw5+NhttammiK6ZT3z/EONfKnwAjHyUTpb0vnyQDhwc3rRMl+9zmgdT6iyLIvnoaaT5KFP1zlo1KmlPDa2nnb8kHI00SanTz1Y2j/6SKZYKB7TbaTOGYf6xhQAAABwSI6ylctg+qW+86OmurTprnLR9YCmf1OK52MV/k3Py0SECEbvcrGySh99D0kLbYCvU1rScBYVeY83KWX6K/Q5PA9S+edHU+feqFNLeSowPbOUmJFk/Aeiv0b8gHI00ianRz0GdzTZaPYUo3VflC+vAgAAAC6Vqx0fajklfA2R+szB14l7Vj4aEvGPO2rOAB+Be7k9vW4AAAAAOB+OMgLViFpkfA4OSva9thaNb+kneJERAAAAAH47px+BOivUN460JT/nMDIGAAAAgPMCDhQAAAAAQCCnn8IDAAAAALgw4EABAAAAAAQCBwoAAAAAIBA4UAAAAAAAgcCBAgAAAAAIBA4UAAAAAEAg18U2G9qhb18GAAAAAABMrokSWoqNc8vj8jbH5x/APKTjd2j54ZzTJryH0kXILRz7fTa0BgAAAPrleFN4fGd+bZTrkke6RMeOYbr9cbSJ0hFb0SvflzB37MVm1PnG0wAAAMBpOY4DxTcMjmY0XGojXVlKm/EV/cGwwj9OTGmmtYtiI+cRvWubOtPonhLa0A+aCwAAgDOAOVBzGmsjAP07NCt6HM/FnnLG1OBgSl/LhNazVzWqwOKx/PWBncrUkDVi4T0I5JuuNZ6cyov4ZnnzsYgj7dWmO0/3h95WuXw1khJSHiPuI32qyyVSt1xWkUcFpctW6uyO2yKrN10CWH2wljqkG2xLCAAA4Ay4Lp78+SEcmqjf6antD20opsmdo+eLblmI76gC6/Cjb3rWdJ2PfTpm33Q+8QY0/dpRlsZEyVLE899oeE2zcS7/nUbeenGYQ/IwI2JOqIib3dJC3/FYOCwRzYZSJ34sE+YY165LYrpEH3Qv4maUxixuUedtsg6hS+ls2U2vWAfFnPBkye0GAAAAnB5zCm/0zjo79v/8o6Yj70rNyMHghoX4MqJ34XgovJ0v33Rd5ftjOgAB+W0/abFO6Dl31gZT+suduBwVvtSG+EZPKcXrBX3W6F/qMqC7CZO1+ZEOTpusPnXho5DKyeIHd0znY8diceWsXt7LDQAAAH4rlTVQ0a3WGfZGnWPAR6cC4Gup8mmhaEb6uEcjvum6yu+Kb37Zd7MurvAA53Rwo8Vsk3VAXQbTZ0pY6u9MXWAYugEAAABnQsWByr5Z9xffUqTO90Z0nmanmLP9XLAQz3UtfN3NeFMuOM5S8nL1fNN1ld+VkPzE6FQDrvBQ5zSnTdYxdeGM3mmHoScAAABnxrU+VcfXm4znRMlz+fbT6pGPkOzzDZ4RPbmmZpgD8TBba1NJEfHBr/mH0kiFF4iRjdLZks6XB77pQuXnU16CFt1dhOQnnNA5veQGtOXb4YzV64zW8YRcS88aaZPVoy68bZkL719YyoTuNX+p8iIBAAAAcAZc62/gRWJtcP9rTQbTL5Lf8SnzyqesyoXTA5r+TSlWb7dd8QXWYkGWQqzPKt8YjL6HrKv1wDddgHwx1bSeUcTiybfwWnR3EVSeEb1nKTEDSvkPRH8N+Xw91ZKGeTg7xpuUMv0zAN60yepPF742in/KIo8Xie8+6evEAAAAgPPkasfnj04JXwekPnPg/0YbAAAAAMDpOL0DBQAAAABwYRznS+QAAAAAAL8IOFAAAAAAAIHAgQIAAAAACAQOFAAAAABAIHCgAAAAAAACgQMFAAAAABAIHCgAAAAAgEDgQAEAAAAABCIcKLnfnXZg7zEAAAAAgFqu3/6ovcp2O+IfJRdHpz3UTsmWeDn0jWl/B+dSLqmH3Pfv0PzWumxGbJpcPMTss3k3AACAY3A9Wye0PIbDtH2jP/ooFzv+tU5SsqJHVvbjOCP+iA68pkJWjxEtJtirsMlGvrgdpRW9io2U1QOM2Hg732QbAADAOXJNyf3hd7/nGwZHMxoutVGuTO7Ef26OxOEZ0Tsr/yU5I6P3y9L3XOHOU6Q7SrsvkmZlbUJ/iBndU0Ib+sEoFAAAnC3XMX1YI0N9Tx+s6HE8pzjN6F331AZT+lomtJ69qidtOTKjP+CLp3V9PZY1iuU/GCCnhcoyNj3dSz0qedTmzWVzm+npuHw9T92m+hRVXVqbpvCAsjnLINNHszXRfCyul06taYvm0ZcAPYLkNsWts5+ui277LrLysDob+ZZ7Ra8zovSvx2jv6oPmNKQb+KwAAHDOJLslexzOYT7NjijepewxuReydBfXyTPClruEaJdoymRpvGOe104m5eGarsuE6ZmfZ7s0NtOWyDDSAkUZC7k6Mi5z9tQ5y1PEa8+7el7qY+an61qTttDVM9yrbE1lYJK4rTU5uWzDFlb9lITo0SZXhstzv7h+tu8oq4xQayOvcqu2Hiv9xGHIUvJVmBUEAADgzGD3eutWL270Pd7AhTyt4zbgnZivA2VhOF+yI3Pq7MrfSKvRqKtGS96VjrbW2atJW5S5JTykbDZWvIrODtmVODkherTK1cocEldR0TG3fVdZWvuryA4pt9BDv17T3vULAAAAzpba70Btel2AUbOeY/vDQgLga6nyqZJoRmt1uZHsuxpvcEND9aeBK25Ol7w7MLhxalZghIeUjRNSBiF7TuM8PjvEFJaLYBuHyPWM20YHWW11EVRugT4tN6J75kHNP8oJv9b8AAAAnA3X68UnGb6N6hSGfS3AEB3Kmr4zda6x/VywEM+1Hnz9znhD7Am+WIQeq6BGottqvDrHzRWX0zXvQxNSttAyCNkJLcViZ+0wFrIpgm0cItczbht9ysoJLrf+ILGlHxYxvo3UOWP0vp8+AAAAjsY1rWf0WjwEr8SCb4pTelL3cfmRTX0hbigjekpjmo8tGaxDf5itKVm+q7cAI7plvVHxRK7CC4RjVzpb0vnyQDhwc3rRMl+9zmgdT+jOdtwqcZk9+CL2rnkfmpCy+ZRh81M60w7Ztexl4wZC4rbRl6wWG9WX+44m8ZoWnyru9pMW65gmWsTKSxMAAADOlutMODf5tMaY5smy9w9pDqZf6ts25fRJPoU0H+dvLQ1o+jelWL3ldBV90/MyESEC9nS+TMopmOh7SFpoA/yzAUsazqIib/HhUGcZWdwsJaaoijsmembxOud9aALK1lKGwfSZEuZMRyxMvmFWlc0P92cnAm28h9z6uG3sL8vHRvXllu27aFvisx75ZwwAAABcGlc7Po9xSvi6HPWZA3xrCAAAAACXwOkdKAAAAACAC6P2LTwAAAAAAOAGDhQAAAAAQCBwoAAAAAAAAoEDBQAAAAAQCBwoAAAAAIBA4EABAAAAAAQCBwoAAAAAIBA4UAAAAAAAgVznW1DYx2O5SfwFsKW3P5emsw/nUi6pR7ctVEL5rXXZjNgHr/j97bP3JAAAgGNwLXak1w6+Nx5RQvd9bwq/faM/moN2eU5aX6zokZX9OM6IP6IDr6mQ1WNEiwm22mmykRd82yKt/ZdtYEWviwll+e9Q7BuZ7xEJAADgHLGm8NiNfLZm/tM99eo/8Y5DbJ6qOWtZSpvx+TkSh4dvQLu7KGdk9H5Z+p4nzHEeEy0LJymh9exBjTSxNqFvQDy6Z48wG/rBKBQAAJwthgO1fXuhOcWUPvXpPvGOQ24W/K6LHUzpS3Qir+pJW47M6A/44on/zxsV/Yg1iuU/GCCnhcqn/6ane6lHJY/avLlsPuWip+Py9Tz1KRl9iqourU1TeEDZnGWQ6SPuOM/H4ro+MqLbonn0JUCPILlNcevsp+ui276LrDyszka+5eaO83v5YCKcpDV9Z+pcZ/XBfodDuoHPCgAA5wt7GlZkuzSmHSXsGblPsnQXU7xLM3WuY4QtdwlTR88+S+Md87yYZhwenrB/FctkR8W51N2terVczG/T5OrIuMzZU+csTxGvPe/qeamPmZ+ua03aQlfPcK+yNZWBSeK21uTksg1bWPVTEqJHm1wZLs/94vrZvqOsMkKtjfzKbeH4XQj5TCddfwAAAOdJ6UCJDvUAN27RUWgdtwHvxHwdKAujA5IdmVN3V/6OzkvQqKtGS96VjrbW2atJW5S5JTykbDZWvIrODtmVODkherTK1cocEldR0TG3fVdZWvuryA4pt4VwtHRZjIp8AAAAZ4uawtvS28ucWGdBvc7eFdSs59j+sJAA9EW40YzW6nIj2Xc13uCGhupPA1fcnC55d2Bw49SswAgPKRsnpAxC9pzGeXx2iCksF8E2DpHrGbeNDrLa6iKo3Bp8anq8SSkz5rQ98gMAAHA2SAdq9Uq8L0metYWsfSE6FPdaj+3ngoV4rvXg63fGG2JP9sUidP6+YCvRbTVenePmisvpmvehCSlbaBmE7KRc9JwfVqcvCLZxiFzPuG30KSsnpNwK7jxFsyEt9UXjOaP3/fQBAABwNIQDtfqYs38P8OkCwYie0pjmY30xL4N16A/Ma0uW+cLaiG5ZbzT/UEtwVXiBeNovnS3pfHkgHLg5vWiZr15ntI4ndGf3YJW4K3rki9i75n1oQsrmU4bNDxWSHLJr2cvGDYTEbaMvWS02qi03Y/V4RZH4XIG2mFyj8tIEAACAs+WaOypy9u7JeVPnN/19P+w3mH6pb9uU0yf5FNJ8nL+1NKDp35Ri9ZbTVfRNz8tEhAjY0/kyKadgou8hc/l84G8/LWk4i4q8xfSJawSAx81SYoqquGMiPirXOe9DE1C2ljIMps+UrGcUsTD5hllVNj/cn50ItPEecuvjtrG/LB8b1ZZb/c5IpS90gMMEAAAXyRVfzDqe86kN91Mxd6DG85jS7IsO8ikgvi5HfeYA3xoCAAAAwCVwteMLQQAAAAAAgDfWl8gBAAAAAEAbcKAAAAAAAAKBAwUAAAAAEAgcKAAAAACAQOBAAQAAAAAEAgcKAAAAACAQOFAAAAAAAIHAgQIAAAAACORa7L+lby1xlW+tAgAAAAAAXFyLneGL3ekzSuM5jbE/18nAhrJ9saJH9kDweEZPA+bDyn77SwIAADgt15Tca3vgDehuEhOtvylTV3pj+0Z/is5DHsfs3ETndU696ZH4N8u9pbc/Y2JPBvTu2uDxJKzodTGhLH9YEZtrY7QXAAAulWuafxg38ex7TRTfUqTOe4FvGBzNaMg6NDnSxY4spc246876ADQxoOnXOTlPnBG9f02ZZorRPSW0oR80fwAAuEiuE5rTWIwG8af2KxrPE1rqN/q9WdHjeE5xmpkd2mBKX8uE1rNX5cBVp1wq01nWKFYZl+vOp0SkDBmeP93LckUz5hjOxyKsdNpkWC7PXv9lTrm4Rgua8s1pzsMs0yN9qsslXXVsKreuLzuMEaq6Mul62NNP9Tr2YsPaenfQ1kZWefgj/eeR/V8pu2/7qMqTYU221Vh9sF/ekG76+6EBAAA4Jrtdtktj2vE/+ZEsd/2SpbuY4l2aqXMdI2y5S6z8szTeMc+Lacjh4Qn7V7FMmL75eV4G61wTJmQZhavGYf5cmZ/QTcvPSVu+LXmocOZcijOZZzV8Hx3ryl3kyVKbdld5VmxbxnGVwaljLzZsqnebkDbCsGUZ7bGhXOLMIU9dq7ctz4LVB69j6zoAAIDL4vrqKqLFJFPrMhKaj9lTc++LmGuetAc3LMSXEb3v3sv1WtEtxdYUSLLMw9Vars1PfTm2n7RYJ7TUhsVGTynF6wV9Fonm9FEzgKBTm29bHir8eaqMM5jSX9YDF/SoY4GdJ9P8ieU5t4RUypQsixHE0T1zC/J1ck06/h9+tqcN2dW2ei8JaSMMMY1W6rf9XNA6ntAdN42X7S15nrbltuS/N000AACAC+OaT6195Tf80btwomg9o9eQTrmVmg5v+8NCAuBrqfKpkWhGa3XZxeCmxTXLvqvpdYeOTzGqdVo8P9+1Wka+bXm4wnUOoaOQKadtc1uKab6uNOn4P3qwISeg3oPiMgeH+4LSwdnS52JNybOavm6zvQsP27a2SwAAABfB9dAeGhJP7T0iOp01fTte6xNP/CzUax0IX9sy3lCalYvQ99LTVU7boeMOisqLZlHz2hsXbXm02foQOgqZifbpCnV0HQ5p03FfG4bUe4c2IkaV+IsUavToPjeDj+1tfGzLH1Iw9AQAABfP9fzFnK5bvfKn9rIjWfGFtnt9s0ZNY4wtGayze2BP5+UUSES3rMcqpjtUeIF4ui+dLel8BaJP6QnHbk4vmlKi7PkUjo6IG9Nt6KuJbXnY4XaZ+9Kxpdx74atjk35NhNR7lzYyuKNJzPR/YHH1T3qE2D7Hw7aVFyMAAABcJNfJekaRNuUg3sLT15H0wGD6pb57U+aTT6/Mx/nbSwOa/uWjAfKNsavom575dGIOe3JfJuX0SPQ9ZG6eP4PpM+VllVNJfL3MkoazqNBpvEkpy99A1KeCrsa0Sf9SsbTFm5Y8eLgamRHhD0R/9TL3oKNPufnhO71WpUHHPmwYUu+d2ohcc7VeM2e+GH7itNWdi75tCwAA4Fy52vE5hlPCO1n1mYNiLRYAAAAAwBlzegcKAAAAAODCuFb/AwAAAAAAT+BAAQAAAAAEAgcKAAAAACAQOFAAAAAAAIHAgQIAAAAACAQOFAAAAABAIHCgAAAAAAACgQMFAAAAABDItdibC9tOAAAAAAB4cx3NhuXu8WpfNjhR4Heyokf2kPCo9qs+F8yHmH027gYAAHAsruP0icod6Kf0nBCtZ69qg98e2b7Rn6KTkMcxOzLRSZ1bz+nJIXS/ZHt0Y0tvf8bEnhbovc+dsvdmRa+LCWX5Q4zYdDvfYBsAAMC5cj28MTfwHd3z/es39NPnUzDfMDia0ZB1XqKTUKNdmzGmDMGxGND069ycJ86I3r+mTDvF6J6Svn9/AAAAeucIi8hX9DieU5xmZuc1mNLXMtFGu6rTK2KU5M8bFX2JNYpVxuWjC3zqQ8qQ4flTPA+7omi2JpqPRVjhtNXKU3kXYTUjAm36rPLwPL2uHzusEaBqnofQvUFmo351Npby5Lk+/aRfz+OWtNu3Lj+NBhsYBNTTfx7Z/5Vy6zZqKldVngxrrneD1QfNaUjWcw0AAICzI0532a6E+TQ7dnGX6hf3IUt3cZ08I2y5S4h2yVKECLI03pX68fCE/atYJkzP/DzbpTHX2zrXhAlZuvAmeUIvLcxJiD4ceY05kurcKm9Dnv3r7pLZol+djbU4ou2I+lJhmvwyjOGlY01+hcwm++sE1pMtx2ijLeVyyVPX6u0qEfXBruv2BAAAcL5cJ+sZRdrT8QfxKby+qXmiHtywEF9G9L57L9drRbcUW1MdyTIPH9DdJCba/JAWbNEmb04fDQMFYfowtp+0WCf0PM0NMaIn1rPOjUza8szZV3cHXvo5bJwsi5FFMf27/qZMyVpqQ46jp5Ti9YI+A3Wsr9N2+0sC60lMoZW6bT8XtI4ndMfN4lWuLvWuYLZkv8kznGYEAABgc/2er0lSx/s9v9z3FIKrY2Nsf1hIAHwtVe7sRTNaq8suBjcerlmdPD69qNZo8bDadVoB+lD2zcLnNM7js0NMo+X45pmzr+42bfqFIGRZ6M5yRx0rdepr/5B6Yg4O9wOlg7Olz8Wakme1RqmtXC487erVXgEAAJwN1hqoLb29zNmT8H35BL0vooNZ03emzjXE072vs8bXsYw3lGblIvRYBXWiTR7v5NV1/mmHyrKVUH3EyEdSfjIiP/ThhrY8c/bV3YWPfr4IWRa2s9xFRx1f+3doN2JUaf5BKzV6dJ+bwKdcNr52Hb13szUAAICTYDhQq8eIZtYUxYovqt3r2zRqymJsyWAd2wN7Ei+nOyK6Zb1TMbWhwgvEk3zpbEnnKxB9Ss9XnnAAY7qN1HlOqD5CzpxefAzpyrNP3XN0mSH6teGQtXqdlVNhOm061uFrgy7tZnBHk5jp/8Di6g8TIeXK8bRr5YUJAAAAZ811MbXBjjHxNRja+o2eGEy/1PdtyrzyqZT5OH9TaUDTv/zJX74ZdhV90/NSW4/FntCXSTkVEn0Pg1ZrDabPlK/3ElNGTfL0KZ+rMW3Sv1QsYckJ1oevxVnScBZpsrXpq4Y8e9edUZHZpl8QVVnjTUpZ/rq+p46N+Nq/U7uR663Wa+bgF8NPnJZyOenTrgAAAM6Fqx2fTzglvDNVnzn4Cu5FAQAAAACOz+kdKAAAAACAC+MIH9IEAAAAAPhdwIECAAAAAAgEDhQAAAAAQCBwoAAAAAAAAoEDBQAAAAAQCBwoAAAAAIBA4EABAAAAAAQCBwoAAAAAIBDpQPENV/kWEzU7uop9urRtKOriAdAZtb2L3OJkS29/8i1+AAAAgPPjWmwWrPalc8GdJxZc7ma/W1LC96v7NU7Uih7hGJ6c1ceGtbGMJosHettm9N264+9lc8jNg80Hnn02AgcAAFDH9Xgei44rjdUVgxW9ztYUG5u9juidb/I7fwm7MeejXPlxJjvPb99eaB6nlHHn8J1vHCsdqn43ez2ETJtj5HEotvSz4f/zDaUntIj4BsNPrKWFwkeutDamjl5tYrdjdpyX381+s4uJbM/8EJt4YzQPAAD65nq3+6rfCX/7Q7xfG95YEaJbimlN35k6b4NPz0QLmhSjWDvKJgt6OJfOfnij7abPd8/f9byx8SFk2hwjj0PBHKcv1Q4HU/rasxx8Y+q8nfGjN5uIdjyj4bKUvctS2ozPyXFl7eBrWrbn0T0l7Ff8c4l+NQAAnDHNi8izb+YmxXQbqfOcwQ0N2X8br7vyih7Hc0qWpqM2mH5pHZs9cqA/MfMwPg2hTbWJcD2NPU3RJC9HxolmayI+JcniyZEEeb0cVdDz1a5bIxFlfKXvKg8vdW1P68A7rp6H0sHbZq74jnCjTBzTNvYUqDmVVNaB83pjOXW9tTRBhNrEhqVj7Zg7Z2KgMoc7fMuE1rNXpVONrYzyPdKniKtTZ8s99V590Jz9Wu1nIAAAAHvCnqIZ2S6Nace8HHmas0x27Hl+l2bqvGC5S1hS1pmo8waydBdTwlLUUc2b9Uc71lOxEI4KL2Tk57TLkzjj18ozydLYKrdMLy/Jv8tysnILObz8WpmEnWz99DLrMpvS2oTEreodbDNNtrBLQ3h+zbCNJr+23p3XPexZCLZ117F10rHLkJ/X2cRC6O36LTCMMDsfjqWXiK/nZeut27Kb3qL+eB5aPAAAAP1x+M8YiFGsBraftFgntNQe60dPKcXrBX1qT9XJ8l2tiRnQ3YR1P8myGAkY3bPuZv1NYkbRU54XStZzMVKWT4/w6bJcH4aY0jSnSUp9bdrTloTEreJtM4Wu8+Bu0lAHDIdtnljPPv/Qx4bmZJwW2NcbytmhPtezSI3M5KM1JaE2MakZyVEjsjqNthpM6S+zVYGHLTvpzeKw37g5YgYAAKAXmh2ourVOdWujuuBysBwdkjd9ymty/tRr9+JoeIvRSUjaffLZhzabCdvMaZzrxg4xHZrDp7bU+iAeVqwRqrteV84O9Rkba6A0R2ZvapxX9Xuopakdcdps2YHBTedfEAAAAA+aHSjVUdlrnbafC3bDd6yNciEWsdaNRDCEk2bR1iE10ac8lywOX88y5q/dlwuJnfFchKTdJ599abOZsE1Cy8JRUYc+3KEWhHO9aRaV65rs6//dUM6+20dXxG/B/eKE+D3EE7qre56oa0c5PrYMZfS+X3oAAACNtEzhjUjMDsz4t3nUJZKfNqDkuVgULr4lVbuQVU1HjM1wvpBYjD6IjmlOL1rg6nXW3CE10ae8iqwVPfLPL4gRg3I6RzqUnoSk3SefDszH5XRXq80cdq5FxK17GYFdp4Zy9lmfe+Fux9zJfWC/h+RZe/PNxi6DSlMQYktPDvmdKQAAAMyBklMGEYn7uXobTXeGRu87WiZrmkX59AL/Rk8W9HTL37iTgw25jCuKFhP6Kzwwvv5lSUNt3cp4k1Kmv4odRJ/ymCw1SiJljYl4R8me7pdJOeUSfQ+J+Zl+hKTdJ58OJOktvai8xvOElo02q9qZH84pOdFm1LfEXNf/q6mc4fVproHq7xMDvB3L7yqVsvPPczT/HKx29ED0d6nXZIstAQAAnB1XOz5XAP5x+CvxEX0/Y8ExAAAA4MPh38IDAAAAAPhlwIECAAAAAAgEU3gAAAAAAIFgBAoAAAAAIBA4UAAAAAAAgcCBAgAAAAAIBA4UAAAAAEAgcKAAAAAAAAKBAwUAAAAAEIh0oPimtXz7iGK3Vwc+cQDoitriRW5fwr+MXu7LBwAAAJwb12Ij4GjWuEmtT5zLZUWPau8xOIenY/WxoTTLaLLgG1dn9H2ExnbqDXcPmb+Qnbfr2o2+AQAAdOV6PI9Fx5XG6ooFvxG3xfEiH8HKjzPZKX779kLzOKVst1MbJEuHqt+NXA8h0+YYeRyKLf1s+P8Dmv6d0CLimww/UZdt+YSzn7cxftS1s9Wj2NC6+6bV58yKXnnZeJvmh9gAGSN6AADQJ9e73ZfcJb8GsQN9S5xW+PSM2rVe3NDZkU0W9HAunf3wRutE+c74O/raq8A2h5Bpc4w8DgVznL5UGxtM6atzOaQjFqeZamfM6acZRS4navROu1/pPHFYW9DLNrqnhDb0c4m+NQAAnClHWES+osfxnJKl6YRxx6zsJPmaF33kQH9a5mF8CkKbahPhehp7iqJJXo6ME83WRPOxiCdn8OT1cjZPz1e7bo2olfGVvqs8vNS1Pa0D77h6HkoHb5u54jvCjTJxTNvYU6DmNFJZB87rjeXU9dbStMIcs+eEaP1NmbrSJqtO5ypNcmrsZZTxkT5FXJ0meyqZQb8DxeqD5jSkm9/pLQIAwGlgT+qMbJfGtGNejjx14hPHQZbuYkp29amqcpcJO49TFsJR4YWM/Jx2eRJn/Fp5JlkaW2WS6eUl+Xec5imXu0TIYf/rZVomDv30Musym9LahMSt6h1sM022sEtDeH7NsI0mv7bendc97FkItnXXsXVihMhqbas5bTqpcEOWpZvIq5qm1p4Vmfl5XZ3yLFgd8jwMOQAAAPrg8A5UY6fPcHVa4lq8k32JzFfPtuL06Hm0yjNpdKBcsly06Ou+pmjQrUJjXD2PQJu59Gsrk8M2Rh4i3FHmuus6et6OfIxwA6ln6YTIc1OnBlni7xbdOK06BdirwXkz66wqs7lOHeEAAAB64/Tfgcq+q2/3DW5oqP4Mpk95Llk56rV7cYS+oRiSdp989qHNZsI2cxrnurFDTIfm8LVMWUqbsQwrFrfXXa8rZ4f6XM8iJSui2XCpXg5gtMmq0a0yrdeljTW1JU6bPTswuOnU6gEAAHhweAdKLGCd00fdYpLoliov921/SLyU1YU+5blkcfhaljF/7V4timedrjOei5C0++SzL202E7ZJaClHMcsjd1Y4akE415uYU1Ms6bGv/3dDOTvUZ1wsImeHro+PLIfO8kUKJW/3TqMubayuLeX42DMUvlB+n/QAAABq6cWBkq+O1yxgpRE9pTHNx2Y4f6oXT/jiyX1OL1rg6nVG63hCd10WvfYpryJrRY/8jS4xWlAuyt1+LppHF3RC0u6TTwfm43IhdKvNHHauRcSN6TZS5zn5dWoo50Hrs0FWnc6cLjrZaZhz/GCM2FVl7osYOTuTz4UAAMBv41pOF0Qk7uXqbTTdGSqnL+rjtMGf4OUDPU8nD/4Nnr/iLTz++v2ShsW0yxWNN+ke3+fpUx6TpUYipKwx0TOTw57sl0k53RJ9DylRKVoJSbtPPh1I0lt6UXmN5wktG21WtTM/nFNyzG6b9K98C9N1/b+aytlzfTbJqtO5QhedrLb0QPR3qddmiz0BAACcFVc7Pk8A/nH4q/ARfT/vCDM+AAAAQDunX0QOAAAAAHBhwIECAAAAAAgEU3gAAAAAAIFgBAoAAAAAIBA4UAAAAAAAgcCBAgAAAAAIBA4UAAAAAEAgcKAAAAAAAAKBAwUAAAAAEIh0oPimtXzriGK3V50VPWpbS/DDGQ2AfVDbqMitS/iX0ct9+QAAAIBz41psBBzNajepXT2OiZbl7vB8+675+Dc5UZqDCM/wZKw+NpRmGU0WD/S2zei7rkEeFO64HWf/uUNu9FvuX8kP/z0rAQAA+HM9nsei40pjdcVi9G7ujzZ6SolHnX8EOhv5KFd+nMku8du3F5rHKWXcQRQFlQ5Vv53oIWTaHCOPQ7Glnw3/f0DTvxNaRHwj3yfqsi2feCDI2xg/AtrZ6jGixSSjL/cOwhfCil4XE9me+bEc0izCaB4AAPTN9W73VbPjfI/w6ZloQZOsHMnKJgt6OJfOfnij7aLPd8Xf9dyJHkKmzTHyOBTMcfpS7XAwpa/O5ZCOWJxmqp2xBwOaUeTpRPGHhct2njisHXxNy/Y8uqeENvRziX41AACcMeGLyLNvMd2X3PuOD6zocTynZGk6aoPpl9ZZyamTcuRAf2LmYXwaQptqE+F6GnuaoklejowTzVhp5mMRT87gyevlbJ6er3bdGlEr4yt9V3l4qWt7WgfecfU8lA7eNnPFd4QbZeKYtrGnQM2ppLIOnNcby6nrraVphTlmzwnR+psycd6tHFWa9KnJwyjfI32KuDp1Oih5Qe1fY/VBcxrSzaX7hQAAcG6wJ3VGtktj2jEvR57WouLFKfvLkyzdxZTs6iVX814meh4qvJCRn9MuT+KMXyvPJEtjq9wyvbwk/47TPOVylwg57H+9TMvEoZ9eZl1mU1qbkLhVvYNtpskWdmkIz68ZttHk19a787qHPQvBtu46tk4Mz7qpLUeFNn088hA2qKZx62DLy8/r6lIi6o/n0VgWAAAAXQlyoMSNmuKd3j+10tjpM1wdqriW5yN101WrOD16Hq3yTBodKJcsFy36uq8pGnSr0BhXzyPQZi792srksI2Rhwh3lLnuuo6etyMfI9xA6lk6IvK8LHeHcti06hOQR+70NOpQlddcl5LGMgAAANgb7yk8vjh3PGe3aWsqbm/UlKDB4IaG6s9g+pTnkpWjXrsXR8NbjE5C0u6Tzz602UzYZk7jXDd2iOnQHL6WKUtpM5ZhxeL2uut15exQn+tZpGRFNBsu1csBNTSUwznV2KV9NbUjTpstOzC46fwLAgAA4IGXA8U7Euk8mW/keSEWsc6p9qW96Fa81Wew/SHxUlYX+pTnksXh61nG/LV7tSieOQTOeC5C0u6Tz7602UzYJqGlHMUsD72BqAXhXG9iTk2xrMe+/t8N5exQn3GxiJwdbQ22oRx8nV557V2+FdilfdW1oxwfW4Yyet8vPQAAgEZaHSjuPPGn4SbnSb46XreQdURPaUzzsRnO5YrRB/H0PqcXLXD1OqN1PKG7LiNdfcqryFrRI3+jS4wYlAtzt5+L5hEGnZC0++TTgfm4XAzdajOHnWsRcWO6jdR5Tn6dGsrZZ326CCkHp4s+dhrmGD8Yo3WBOnggRs/O5FMhAADwG7mWUwYRifu5ehutdIZW9Kpu9Pzjmfn0ghmnHf4kLwcbyvTRYkJ/xVwgf/1+ScNi2uWKxpuUMv1V7CD6lMdkqVESKWtM9MzksKf7ZVJOuUTfQ0pUilZC0u6TTweS9JZeVF7jeULLRptV7cwP55Qcs9sm/Sunfl3X/6upnH23D5uWclTooo/Vjh6I/i71mgzVAQAAwKm52vG5AvCPw1+Jj+j7ucMULQAAAPAPEv4dKAAAAACAfxw4UAAAAAAAgWAKDwAAAAAgEIxAAQAAAAAEAgcKAAAAACAQOFAAAAAAAIHAgQIAAAAACAQOFAAAAABAIHCgcsQXsv2/rn4KxJY5R9ueg39c85j57UHvdbeixwv+Enh7O+mrbn3tdMC21EPdH/d3dWAMe5zzb7iqW5d2a6Y5YnnPqr8453r+3UgHim9ay7ePKHZ71ZE3yX22mJC72pf7rOk0hQFwClaPY5rHqdpqCNQBOwEA/mWuhQcfzWo3qeU3SVqWO8RnaUzrmbazPvilDGj6xepc3+PtAkbp9oY9TLy07gN46TjqNpQgO/WQH+jAOdu9i25taf7Vdobf16m4Hs9jSrOMmF/kZPRu7o82mD6LjV43PxgsBL+QwZS+du+ELQFbgJ0AAP8417vdl9wl35ftD23Unwcjn1JUhznapeZ7a8LFiBq/IEZL8jjVURM5dZiH10whGjIa4tl0StdcLjfVNPLQ8vPQJbdZaRMZR19fIP4ez9lfa5pFPE45leu2ucrHqEvH6FUHW3Wqu1Zj+rUr3Ub/4dcc+et2E+xRB4LgsiisdJXyaDq669A12hhuJx5csUmLnDoOU/eKAHsJRHzNRo33LVt3O/ww9qjo3aCjuw049LDt29Cezbhme3LalBNaDxrV8OoSFFMPP7t3and18Vpoaie5Xcs4Mg+nXWx9XAVT1KcvbZXnbcpVZWy8z3dr2xcB38plt8t2aUw7SpbytBYVj5JdW0ydLI1r01TDlruEqRWnmTrneebhMn9dTZk+3uXRlwnXjx1xymJr17RzOw2LINNo1ypxGFK2ec2mW7r2cnHMclTrTOZT2tJXF3lNly0x82MIO1XLUU2ftxN+mHXXWA8Ml346lTS1dae3qaqtTNrt77SRytsUa7bffesgvCxuWc7yaOGuNHacPO9gOzFMWe1yXFTi9FL3bp3b7CUwfg9N9y2H7iK++ds4hD1MvZt19LGDSy+ZznXNlGXb0Hnekr+XDO3cxgz3s7uPnX3t0kZVjt5OcpnVMtrllnL8fwdOuxnt25W3kilsYbblUBtfKh4OlG4k3VD+VCuzpBpm/8hbyNJdzOLnqrc3hBr5PnFadeuazoFVLo5ZNinTqLKOZZA/jGr9VGxp/aByXDZ31vneNq4Jc8itNGURJ6DtutpVJb38bRj6GPn4l9Etv1tZXPVh52nHcaYx7FqDl51q5Os42rtJjS17qPsu9hI48q7WNacprIZe7MFPdb2b9Wi3Q1366vV2e1XjtOffnsYtQ2Hl76Ri95oye9V93fU62uOL8rX+vqSckN+B024t9cVpv887aG3bl4PHZwzUArViEfmGxnwY7mBjcCN6Yr0SX6heHQrkWMOBDQvgnagpyOFNw7xlbZyIblnNr78zdW7RNZ0gtFxS5vyjrIfVB59iG5LIPlSX+JaFHJEutgqou/lYsyU/xPTjhuqX7nnYv2KjAd1NWFtdfBZD36IOknu5NmjfOuhcFhc+bdCHLnZyEdjeD1r3LkLt1XDf8tH9EPao0HZvdaHZoTbPvtqWi75kr+iRt4Pk2Vqy0mL3gHa3t11867Tt96Xk9PM76IPAtn1BBH8HajD9IuaJ8p670/yuDzwP7qwtk3y9TT6XzOezI5oNl4VDx7xZYm30wtmjXPNx0TDH/K0oLOwVsKeb0pbFUbfer7v9B3cTitcL+hQ3pRVJ/6nfGggryyHp6/d32N/xqexVf99q43j3te46XjbikxvE7o/6G1FHtPspOI/7xu+28VE+pDm4GbJ/56QNlhRk38wXrfGo+RuA0tgqrfKs9+qgBjfEtWl8i7A2TkZS3Rr/v2u6LuXaftJizd+gzH8Y/NCcp666HIsu+u1Vdw3s064GdzSJ17TgHtTqQ3wX6SkXs28ddClLLT3Uex+/P04XOYeq+1q626ty32rT61D2aKCiYy2aHWrz7KFt1dJHu+Wf3GD2XVoPlz5236vdBeq+Z50W9CWnD/q6Z5wpLQ4U9x6tod7VI4mRwHyagiFW5zcNCY+exGcS5mPzaYe/SSBHVbXvV/AV/vrbANk3rdnPXLRB1TDKaastvT2EDgeO6D4hWs8eSn15nqJQOY44jPwp5rnWhe+Yrku5RJryjbjiKGzXtQwNRLesJtbUz0h9F/386k5OU5hyRTz7LZOcvdrVgKbPiZjGe/uYUzy5077Fsm8ddChLznpGkRZnr3rP6eX3x+gk50B1n9Nir5HIPB9pZNh523no9y1nO+D3VnU/PJg9LBp1VDTaYd/27EHv7VbZMlkan+MReNndr91524Wnre0rW9qJN+G/g9b23ZW+7hlnzK56lAvA5CIxM9xe5CYXtrUszmPIePrRsKBNi2csNhML1PQwc8Gca6GbTGPqZ+TB44uFbWacStltuTV0StdSLo5ZturbDfk1PT8fXZw2Y7iu63bL24Ernu/iwi620nUQ8fuouy7tqkDGrfsN7FMHnNCyCFlMcTOdo/1rcpz5O+pLXstl+tupct2jvbsQcvJ0XF4PdS9kttiL05a3Ec4OuyyN4QeyhwjXyt+kQxHX0KVqh87t2WpPTt1a6sGZpuGcCWP2yGWVR9GHedpdyM3jcfkd252MU7WpjpEXO5x1pM5zXNd99NFpK2N9Hi33+Y5t+xK44v+wQoELg4/eRbNhZc1T3XUAAGiCzySMNyll+KL1wYCNfxdHWQMFDoW9fmFFr7O1Mb0KAADgHFAvmehLVsBFAwfqQuFv02RpbL2qOqZNmtGuMtkPAADglGzfXmjuWosFLhZM4QEAAAAABIIRKAAAAACAQOBAAQAAAAAEAgcKAAAAACAQOFAAAAAAAIHAgQIAAAAACAQOFAAAAABAIMdzoMQeQOp7RY9hO/v0A99TiOef70O0pbc/Dfv3XRy8PKx8NXsdHYc+dTiH8lg07mP1D3IKe6AOLh6+W8JV8P5u9Yi9WM/pPlGDLPcV/Tl14z3Yb0j2sScv3xE5kgPFDDueU8w/8rjbneRDj/lHzHbLIc0i/uOVO2UDAAA4FnK3hGR5uq2m5Ob39Q7cQRyy7Rs9zIjSZUpkb/L7SxCbJ8cp/e1jU+kL4TgO1PaHNhTT5O50hs2YtxTzbcdH75SlGxpfscpOnun31PWApl/MOT3pHkt96rCnLIxUAHB2nMPXuEf3CfvX3gYrR263Ek/ueryPbulNeE9/aTqa0l/hQ53/iFkQzEF8mSe0/Mf2+DuOA5V906kHe0bvO/pS3hLfBuVUI2EAAPCvIu69p77vjp4ojZkL5fKgVh/Mter7YV8+DBr9z29zNAZT+voHN7A/uAMlhkPHzKVnLtQs4kOnV5QvgXIOlVojByIOTyCuy/R1Iwv5HHN+mHOxak2NFl5ZimXkwY/meXq3brbc9nxzOaX+eb4eOmvY9nTrp2SzJ4Y/xTXTnj7lqtO5Lx04dbKqdjIR8aw2Z7QFz3o225M7Tqsso4zN9Sfw0c1Tptv2jt/OMe3BCbBJpzxbjaxs0+neo3Roabs6e8lpK1uDLXvNt872Gj7tTbe7+NshV48jaLNBMAO6mwgPysqb3W9fxG6/5syEpy3Mtmq164AyuO3o+J100qumHlv0y3UqZeVywvooTqV+OSJ/ra003iP26VNtwvU34HvhHZxlsiOKd2mmzhXLhHYUpzvjshVXxGFq6vFc6bI0tvJY7hJK2L+cbMeeOHaJPBHY8avp87yreue4dDPltOfLccnxTatj26UqV8oU1yzbNKer5u3WuT8dOO2yGqhpc771XIkn5Jnx2mXxNki7uIjAy5mXuYqfbv4yXfYS17Tz49qD46+/f556etWW9B+OA9sOgtZ7j5ItdGhuuzpd5bSXrdmW++XbVo9Vqvmpa3Xnqj7NqjLL5FO/dh5eZOmOuVCa7RjqWts912WLajxeDqm3Txl0XHa05XfWq+NvyKVTHq/NXjbO+jJ+e03t2i9Pt7423fTXuQwHqiUOu2AZ3APjx1KXvlmuU7c2XRw/UlnZegOuwZFWx9bHpV/1x8LwsblVrjqd+9KB45TlYyeOs8351nNNPEOmj6y6OC585LnO63HZPrwMrnNFn7Iq+OdZ+T2IOM3tpN027ji+bVenmxyfsjXbcp982+uxSrhNZQdmyHSUr61+nfm2IvPW01Vt42uLJtv4lUHHXR49jz31ctS3l41r9DVo6aM47e2krnw17NOn2njor3O8zxgcErFInWh40zSrbA3VRbNyXVZt+ohumTXX35k698FO05CvTnzLUtp4pj0KDls4dT4w++TpW88+7clL1oie2F16PYtY/TVP8/i3wQCZbRzdHhxP/QPynI+13wg/xPTthn72sc2p8Spbj20hx7se+0BOpa0Xn+xOJ1nxFdzJvVxLc9D6VdN46wV9Cjlb+lywu2ueN8fXFrXxGL2VQcuzD71yQvQ7Wh/V1q736VNt9tP/dzhQrfDvU0Q0Gy7l4nF+ZCmxtnZg9sn3VDqDPslfWFgm+Xqsurl4fw4h85j0rT97Wix/I8Xx9SvesG0r28W3hbsJxYUTI9+AS+7NpciHqt/B9JkS1l0ueObbT5L+02GWQZ97G+2m3+H6qPp23Wee+8v6HQ7U4IaG7L9NnTuvvOzaH0dtevmtKPH5A2+0NG35NrFP2oPQxRZnhm89t7UnTmCb4W+Byh9nzevTHdpgq8w2TmgPTqP+e+X5Cwgs295tIadDPe7F4I4msXJi+BtwcUpP+S3v4PU7Iv5FAz4Ctvpc0FrPm+NriyY9eyuDlmcfeuXso98R+qhKu+4zzx5kndSBEt/jKJ4+GHwlvhg6DEX9EIwPlHHvUnmtqpGUr61uxXc5WFtTuNJzdcas2hJ6bnLD1zOKjDfFtDSt+TawT9o+aCrXJRDdsh/dmswZB996dsSrtE0PWTyN/raJ+JxHTO4+yFO3IJltHNke8oKn/n55yqF+M89KHg76u/ccCo+yedsyBN820RcDmj4nwol5+5hb31/qVr/iDSzPKU3ZDmY0njHLVb79tMfvo+h/OrbRxvvvHnpV2nn331DXPqr1t2fnrbfrPvvFPmTtjoGxQMxELvZSB19YJhZx1S06VNTIM2Sxw1iEJtKUYcmyunhOLiLUZFQW8pkUuhmyLb088nWWkeORVseW45LrswjWp1x1OvelA8dHVhMivtJfbwu+9aynF3Gstslpk2XIYEdd3eX46OYr02kvh52PaQ9OiE36ytNFm2yX/WRe7W1XZx85bWVrsuUh83Xhys+W7YzDtOH3tTobetlAuyZtUl8fJs15c3xtIfMtD70uQuxZlEfYLk9T1a+TXjxO1/uYS76hIy9zcx+V06ZTky198qzV16aj/jlX/B+W8PfAvx8RfdPzET7qxZ90xpuUsl/2UbTfWi4AADh3cP+9HH7fInIxpz6nF2M8EgAAAACgP36RA7VVryNGNFufdt89AAAAAPxuft8UHgAAAADAgflHvgMFAAAAANAfcKAAAAAAAAKBAwUAAAAAEAgcKAAAAACAQOBAAQAAAAAEchQHSnxav/g0u/rcgPGZevP8X2T79seyAd8KgH+WgR9qWwL+iXt2/ph/eV7FKc894B8aPeWGo6IMPtss5OXP4/J247c9A7hgvNvHZYB7WyC/rP7PBdG/9HjfR7uWYATqHGBOzcNsTclz/uVZ7iyMaZ7ku0TLXbG3P3zrQ22vK775ZujeV2L/nz03HD0C27cXWf7lkGYR/+HLjTIBAACEsKJX3r8sD787Rzv59xoDH/zPlBM4UAOafjGnAJ+pV7AG9TCjNXMW3vPWvf2kBXMW7F2iB9OvwpniSIdqSDdBhozoNu5jd/DDkjFvSewqPnqnLN3Q+Io7lM9F2QEABwKjQL+K/GG06F9OyeqVZuuEkkTfxPdywQjUqRENKqb0SWvdnruqcyeDeRnMJQpn/Z2pv86T0fuOvpS3JB1H5nQf8w4gpjpbOhGfOAAAcELE/fMsvCc+aTLnIwP0fi88qNMtJemJkzhQtfOnao1PfvgN8elrhdjBEgn5RWIZ/sfo5dQwopWBSKfJMoP7kmMiGlQ8IbnzjCrLmF1jLtQsYn8XdrLz3xIfgIond9pIXpst/CjSNNZHORTrDpfIufc8TnUOPs+rjJfH8ZNv6+gzz2/q1Fw/fdCXPfe2lUE1jTxK+4n87N9pZXRiH73tunDV3X7yDXzainCKyzitdrRltiZgtKRxtxelq6Gfw3nvJLuUI8L1+w8LN+55tnzbhoH2a69/RlueDg5pw6Yy9ppvSznb6jJHxFO/Y/G3Q64eR9Bmg06sSPpPzJkb3VNCv2DPWr6Vy6FZJrSjON1lTedMFf1alsbsWrxL8wtOljvmx+4oWarzUlacJ8zSXczOtSgMma68VpVTyb8vOTpOmdkujU0ZgkrctryVHHatsIWgRr5Ge31IGboIVzkr15aJlKtdc+XVWT5DyjOv6VTTcLsl7F8LYe96OQKfOIy+7LmPrUyqbUDKNu0grhl5MUQd9qG3I26lfewnX6c+nX5N/obK3wvP39E2FFKmHl5j10q9e6QxyqPiCNvkadW1vWVXdWQXWBzTVpx2G3axnybPcX9oz9PN4WzYXMb98g0rZzUvdU075xjXlI313xS7aJSp3QbufFoReVu2CpVxZpyPA1UxpN1QqzjT2Y6GVWkCq+OryskbvZauLzkarh8Nk+Iut52/OG/Km2HbQtDRrm3pKnk1lcPSu8Y+Br7yG/VsL3uBVbdOfOIw+rGnktPJVjYybyPcqheOU29HPANvvWvK35t8nTpb29db6sTAYUOO0L/UxbRhlzSSaqfGMGzVXbYpx3EuqLONfr0ujouauI4yNefp5nA2bM57n3xDy+lVlwwznuyTDJmO8nVqR41UnTCXrpfGGa+Bkoud69fqyOFAcwqLIdYPJZSvvxYLra11QtvPBYuTL76Wcmg9o6gYsoxoNuRvwJVvLfQlR0euYcqn7xTbHxJLw62V4Xb+5gJyty2kfqUtBDXy27Hrw5paiWYsL42QfJzruLrKb2g3bTrpw9Yiv3Iagx9iFNsnjheB9szpYqsKMm99EaeYSg5+IYHTUW/v9rGPXRTebWVET+wuv55FLC/HFIuOkjkfa7rxQ0x/bcj5jkaXNL4cUjbHy4bh9musf688e8TLhgFl9OWo5RzQ3YTpv/hkvyxJvi5JdBNeNuiA68UoMY23psVnH0Y8DZe7iLym0ck1RfnNdEufvNaGN4ZjYSy+Vp8CYF6wXKicH8aiu77k6Mg1TLZM2wGUVPMXeVuN3raFc5G55wL1Zvhaq9w5VOXMUia1Lw4tv4bRu5WfWZ+iKn3iBLNPefdIOx8XN8jxPKFljaNfz+9rB/kLC8skd4yb16GwB+pSt+Io35R10SWNL4eU7UOo/c6RNhteehkHdxOK1wuSfou2Lkmj73YkH+Ztx2zM+kzmIM5eL66N5JyxAyW/+yNeZfdl+0YvvEYKR8MhY/XIOgt2zR65aqQvOVXs8pkOYI6dv1pA3mQbpZ/toJmL1kPQdFAOm/2jMxDfm2LPLF0eWfaS39Bu9tGpdwLtWUeXtOJp0Hb2O3wjZh+9fepiH/k6HdoKfwtUOms130zr0pYO2f4O3bYDbdiL/QLz3JtAG7aW0Zejl/OOJrEa+eEP/nFKxUvggTbwQw0AFN811I5lwsLP/7uEdZyPA8WnvrS3AFaP3DtN6LnF5S0qmr/hoIb3axscjzPeUMweYYvRmuiW/QDYk8SrVoM8nv32kU4vcuSPw6RmVEp1JEVeajjUHnEybKH0M21RM+3poqk+1I+snALaym9ZqTPJiPibquvZQznMzae/hFfXQlf5jOZ240rDRzmO8AS5tz1r6JJWpMmfnrXDaqsjYaz8SZVh198+evu0j73k63i2FZ6/boPG0dp8KseUWZFh0CWNLz3KVvcyc+bIw4aB9mutf588e8XDhkFl9OXY5RzQ9DkR03hvrEMw+4Nu7Ui+3VczpSk+1VPzICSm8fTf+IXBvMCDYy84c54nS+bM88V27G9xtC8uM+JzeY4Fpu44lmyxmE3FUYcug9OXnBLHYr66RYPWAj55buZd0U/IcsWxFjM6KOrHKE9zWZOle/GhkJXHc9jNbgsFnvKNcvPDJcvC0Ikd9XXUD33Zc19blci2Z4arRZ6W/Lb620tvxqHl6/i0FUMfdtTbUNIm06Vb9zRNC5ElXWS75Oh20O9HXvK18Db7GfG5LMd9tS1PFwe3oRbe1hb7ytfGlZdLrjOe6B94PmbcHC8baNekTdyyZFh9v9MWfs5c8X+YgX4H4glmQ2l2vDn/7rCn6T9qfUe+cIaPHEUzGi67rqVpgo+0jGmTZsUHKuvgTxPjTUoZvhbfC+dmT/7tnWg2rKx5qrsOAACgyuUuInfQfX3PKZBvQ+isXme01ueje0R8zv8gw8HgMrHXHcj9sih/MQEAAEAjv8iBqlk/dMYMboZ88pf+I+aP1ZtQhxil2KrNis9iM0lwavhbRFkaV96I4aOT57LlAwAAnDuHncK7///VHz3x8b/k/33LPRa5/gAAAAC4aH7VFB4AAAAAwDH4XYvIQTB8+oaDZgAAAAD4gxEoAAAAAIBA4EABAAAAAAQCBwoAAAAAIBA4UAAAAAAAgRzPgeJfCc+/OfN4in1v+Je4ef75fj38S+A1e/fsgyjnAeT2grTBn/NU7gLgbYa1odC9xS6C31w2AADonyM5UKzjHs8p5h/q4zswn+BjfeJL3Hw36OWQZhHfPNa1me/vRmxOGaf0F18jBwAAAPbiOA7U9oc2FNPkhHusZMxbivmW2aN3ytINja+YM5E8X8CeeT2xfaMX3y+dn/Uo2ikZ0PSLPQCEfi3+IuzZsWw+oD0BAH4hx3Ggsm869WDP6H1XbKLLt7I41UjYyRhM6QubxAIAAAC9cHAHiu9EfzWes7/WNIv4GqQrypdAiTB7zYX1tCri8ATiukxf9zTLd5Mv49hrfdQaDy28shTLyIMffKqvGTPPmvi2XC1jUT5HuoptGmRwcjuV+uQyPcqtIeRY9WXYsbMeNmF68RG0P01xW/Ry5SePUr+KzTlCrtUetTh5ec38rfh72LOKh92abNUQFlo2SbM+TeW38xO47M0EdmrXSm+s+QMAHAT+JfKDs0x2RPEuzdS5YpnQjuJ0Z1y24oo4TE09nitdlsZWHstdQgn7l5Pt0ph2iTwR2PGr6fO8q3rnVNII3c00Mk6uB0fqQrkyKo2um9SddrES0iqD4bJTHq+p3FJfqxnU1Fd3PWza9TIx7SHTl3q061Wnp55GXfNpj3ZbtMpbkbOHPU187NZkq2Y7hpfNRx9GTfkrduK47G3pEJavXl4AAOiPy3CgWuKwC1bH4EGW7mKWRt6E69I3ya0JM3STcSr9oYiTd1yyMzDkGOE+Mvgp72jK81qMcoc4UD3rYWPpZdJeD816OeI4ytilPXq1T0de7KKXPVup2K3dVu4wnnWHstm46rEmjbe9O7RrAAA4NMf7jMEhEYvUiYY3TctfrSH/aFauy6pNH9EtuyuvvzN1ruGTp4ozH2v58kNMaWzoR8wsDOhuEtN68VlOnXyw8ORerlfykqGIb5nGNg3lDmFvPWxC9BrRE/My17OIxbWmkLz0kvU4/yjneISNaUiNTeaQhNjToM1uDbZqDOtKT+2riUO2awAA6MjvcKBa4d8/img2XMrF4/zIUmJ96lFgT8VlvsXxVbwBOLibULxe0Kfo0FYk/SdzuXebDDf9l7ubHjbheuUL/5dJvpbGXFvlpdd8XHS4Y/5G4hksqg+zp5/dmmzVZscwTvW7Ou3vGQAAOL/DgRrc0JD9t6l7bFdP+7ZTUlCbXn4rSnz+wKYtT45PHM7gjibxmhbcg1p9iG81PeWq+spw0VbuEPbRw2YPvfjblLKznJMYUPLRa/tJi3VMaaY6W3Gc2HnqYs9Au1VspdEU5k2f7SuEU+ULAAAaJ3WgRvcJUTHywuBvzYgpjFBGJETNHrRpCf6Uqp6uVWdVTuFs6e1BH/J3pefqjFn3ktCzczjAkaaifz5lYsoV8Yy3jwY0fU7ENN7bx5ziyZ32LR5fGQ5ay11DdMs61jWZM5d76GETqpedh/gsRkzSr/XQS+RXvgVWHJbe/bVHi77s6WO3Jls12rEDvvXoLP8e9vbNl8tj9Yy38AAAB4E9jR+ehoWncpGoOviCUrEY1FpE6rmQ1ZDFjurC7DIsWVYX8co3eTQZdr4O2vTn+MmV+tTZqU2G006clnLn1230cul27KyHjUd96Nh1a8dr1qv61lZ+zam/LqOlPTrL62ifutwQe1bwsFuTrVrDQsvmWY915Tf04Xn5/P45PvmqOHWL5gEAYB+u+D/sJvN74N+5ib7pGR+N9II/oXN+WzPQ4d8QimbDypqnuusAAABAG79vEblYTzSnFwzbAwN7rc+KXmdrvpAGzhMAAIBgftEI1Jbe/kTE+0QivmA49M2wf5N/YQSKI0ebzFUycZoV2/sAAAAAIfy+KTwQxL/iQAEAAAB9AgcKAAAAACAIov8HiaCo3R08sZsAAAAASUVORK5CYII=;" vertex="1" parent="1">
          <mxGeometry x="-770" y="40" width="520" height="315" as="geometry" />
        </mxCell>
        <mxCell id="IwiJIAZu2RHVefeSt08b-52" value="" style="shape=image;imageAspect=0;aspect=fixed;verticalLabelPosition=bottom;verticalAlign=top;image=data:image/png,iVBORw0KGgoAAAANSUhEUgAAAVcAAAF9CAYAAACwBitIAAAAAXNSR0IArs4c6QAAAARnQU1BAACxjwv8YQUAAAAJcEhZcwAADsMAAA7DAcdvqGQAAB/aSURBVHhe7d09cuJKuMbx13ctMIHLK8ArgEkcOXWGQ5NMcKscuuoGk+DQZCd15MSwArMCl4OBvXC7WxJIQt/SC2r7/6vSOWPQF8I8tFpyvxc7QwAAnfqf8P8AgA4RrgCggHAFAAWEKwAoIFwBQAHhCgAKCFcAUEC4AoACwhUAFBCuAKCAcAUABYQrACggXAFAAeEKAAoIV5zYVp6vL+TiIj7dyyp8Nvv5C7l+3gZPr+5jj19L9LC1uk8uc3H9bNaWsn2W6/g8Zro/bDyQuY3s/UrOE4j242i9VsH+45ux47kCp7PZzUeyG8034c+73XIqOxnNzTPW8fN7m/luZH5lp8vw591yN81dLvj5sF5jObVjF8eWN8J17pcr3EbEPJZez559brSbTkc7Sc9Qad34Lmi54uzGNyaq1l+yCX8uNpLLYfhPGcvLx4MMwp+SBvLwGF/vSu4nC5O1G3kZuwcCgwf5MOm+nv2NtZ6rbiPD6k0Wo1v58+dWRou32DojLdYNrxCuOLvV20JkemOipsTgt9yO1jIbxrsRKtr+k08TbLe/M6JseGme+ZR/9hS9zTYM+1pGt79l4NazkKf4eX/LdcMvhCvOYj0b7vseny43sks0J5PPH/pkTWv0YyfL6UImpX2WW3l+Sof2lfzKaiYOfplnInW2kbJ9lqdFFOAD+X07kvXre6zft8W64R3CFWdhT893u53YDtf17O4oZPbPu+kl0aodvwSPb+ZiWoHJgDqE8lBmV8tUaIet0zTXqk0q2kae7furrEe3EjWOB79vZbR+lffUsk3WDf8Qrjiv8YtpyZlT5b/1T5QHD49iolm+Yp21iVCOB6trnSbnjaRDMS5rG9m28v66tukuQxfuZhrOzJJreU2na6j6uuEjwhVn5y5oZV78Sdo+Xx9uybLsxSMTTzfJHoUcY/kzH8likmopmlP5u9lapo/BhaXG21j9ldl6JPNNGOzhtDHbjC6Wtdt/eMf8AgAnlHWrVfyx8BYq86sZn7KfG+0Oq8lab4bwdqzsdVhF24gc34rlbifLvDcrPm+VdeO7uLD/MW80AKBDhCvU2f5H5OMj+D0RrgCggAtaAKCAcAUABYQrACggXAFAAeEKAAoIVwBQQLgCgALCFQAUEK4AoIBwBQAFhCsAKCBcAUAB4QoACghXAFBAuAKAAsIVABQQrgCggHAFAAWEKwAoIFwBQAHhCgAKCFcAUEC4AoACwhUAFBCuAKCAcAUABYQrACggXAFAAeEKAAoIVwBQQLgCgALCFQAUEK4AoIBwBQAFhCsAKCBcAUAB4QoACghXAFBAuAKAAsIVABQQrgCggHAFAAWEKwAoIFwBQAHhCgAK/AzX7bNcX1zIxf0qfAAA+sW7cF3dm1AdzmQd/gwd2+drubh+lm34M4B6vApX+4GfLEYy32xkPgofPLmtPF+bgLct59hUrRG9knsz7/VzEFkuwGh9pySPEeArr8J18PAhu92HPAzCB85oNN+Yfdntp5dx+EShsbyYeT/68AJ6i2OE74ELWp0LWl77Vm2iZRq0eu9Xwf+Hs7XIYuLmO7TU0i3je7PGLHa+a3nexreXnrfquoyoHzuc7z18OBBuaxXNE64nscyh9X7UIl/dH5Zxgn3ObrQH+3x4rsZrAHqEcLXchz/+AQ6n2n2ONggm8rlv1S5lasLzOEQG8vCxk43t25gu3bxBS80uP5TZVfCYnZbThUxy92Mts+Gb3Lh5bVeJmXe/sTrrMvPezUSi/d5cyqsN/gSzrcmXPLp1vZj2pQnIYfSzmZZT8z0RBN/g962MFm/7ENz+My19s29vsQc+ZSo3pa39uscD6A/C1Rq/7D+8ienjwcRgtvVsGAviqCX3Lq/rqTzuT2nH8scE6GKfKiXC5ZexPobxn7mM1q/ynpMm06UNOmsgv29NWH/+C4KnzrrS+z14kP8yOrUP27Ls6Xvs5+GljExk/rPrHvySK4nCdCvvryKPj1Oza8GGt+aB9fQmtq4cDY4H0BeEa0PJPtcwZDZfpn1nWlax1q879a/KLZ/igqqawa/YnHXWlTVvFfEWf+IOjrHcTG3O2wTcyNeVCVITvvL6bqLWhu1apuXN1tbHAzgnwtXqqlvAtd5MSyve+rVTtatd4fIp7hS6gTrrypq3jO1vnXzKfBO+xo1pUYZPWWOTrmsbpqs3+bwcmlD8LbdiW5wmbE1rtEq2dno8gBP7duHq7oO9sBd6wgeqaNAtkCk8HX6qs/HoNN7KWH7117QIR7fyu9aOGHXWlZ7XBOddWYvbtSqv5Fe4LneqH/wzML6RqTl9//v2KVdupoH8ulrL1983WSS6BGy/qnnPsq5udXk8gBPzKlzdVWjXqhyK++yHV9prh6ka2w+5lKtEf2z+PZuDh0cTQDMZ7uc5Xn7yOZdN3ZB36qzLzGtanhLNeyfy39Kc1xcxX0ju4lK47uHXlWmzx9mugbUsFlf7VqptzS4Wi2pdAk6XxwM4rQvTQtuF/wYAdIQ+VwBQQLgCgAK6BX66m/8N/3Emb/8X/L/JfkTLAj1EyxUAFNByBQAFtFwBQAHhCgAKCFcAUEC4AoACz8I1NRC1mbIHXAaA8/IqXFf3E5HlYWAV++fviwkBC6B/vArX8UuyVpUbONn8v/Jg1F1JDFHYl0FjAPQJfa61reT+6VI2+9bzWmZ3lB0BkOR3uIYj1Vcfwq4LY3mJDXlnh9GT9Zdswp8BwPI4XLfy/LSw9VbkT9tsbVyJINyHKvWgAPwo3v75q604MFmMZL75kJOXuLdhPDGhaplwZ/BmAGletlyDYLXVSM8QrFasLMzm9lWGXNQCkOJduNpSL0GwJu8caKVFgUJXqkXW8kWnK4AYr8LVBqstVV0UrOoFCm3V0/iNtas3WchIbIFTAIh4FK4r+RtWJLV/OJBsZZ7wtNyWiP6MCiOayZWXPlP3BIDeYjxXAFDg8a1YANBfhCsAKCBcAUAB4QoACghXAFBAuAKAAsIVABQQrgCggHAFAAWehetxgcJrhqMC0ENehWu6QOFmPpL1bEiBQgC941W4pgsUBsP9iXz+O3HrNTVEIa1nAGl+97lu/8ln+M/TWUnQgA5b0MupaT3fMVg2gASPR8XayvP1UGbrqQm6lzPWsLL9wEF3RWeDdwPwnmctVxuo0el4h8HaohJB0HpmsGwASV6P5xpVJpDpUnZnaja6el5yvu0D6Cev+1wHDx+ytFe0Fm/m5Pz0XD2vz7lsCFYAKX5f0OpKg26BoNV8JUvKagPI4FG42gtHqVpZJhRtJViZ3uz7XdULFBp2G8PXW9mc9UIagD7zKFzH8mcuMhvGWpYmWUfzzWn7O7fP8mQDfT2TYcVWLoCfhwKFAKCAPlcAUEC4AoACwhUAFBCuAKCAcAUABYQrACggXAFAAeEKAAoIVwBQ4G242oFTgj89vT/LiFgAUMTTcF3J39laRqNR+DMA9IuX4WqrwC6mS/nvNnzg1ChQCKCEf+HqhhmcyvJsA1RToBBAOc/C1QbbQqbLc46jOpaX+Diu4xsx8Spfm/BnADC8ClfXHTCay5+uk5UChQA65s94rjYAJ58y33zIQ1geYF9q5YwVAShQCCCLN+G6r/Sa5wwVYN0+2XIv1NECkOJNt4Ct9OouIMWmzdzeijUNLi61CdYG3QIUKARQxMtbsYpQoBBAH3y7cFVHgUIAFVCgEAAU0HIFAAWEKwAoIFwBQAHhCgAKCFcAUEC4AoACwhUAFBCuAKCAcAUABV6F66EoYXK6p0IhgJ7xsOUajoIVmxhKFUDf0C3QBAUKAZQgXGujQCGAch6G60ImZ201UqAQQDmvwvWoGoFrNQ7lou0VLQoUAuiY9+O5ugKBC3uR6zxVAShQCCCL932uw0tbR+s87K1hk8+5bAhWACneh+vmay0yupRWZ+UUKATQMX/Cdfss1xf3Eu9ddS3Hhcj08RBwFCgE0Af+hOvgQR6nyTsFhjOR+ebEf0RAgUIAFVCgEAAUeN/nCgB9RLgCgALCFQAUEK4AoIBwBQAFhCsAKCBcAUAB4QoACghXAFDgZbgG4wfwp6cA+suzcN3K8/VFMMxfhQFWvORG6EoOUKPqu28POBOvwnX7fCez9bQHw/yt5N61mrNG34qes1ODEBm/yGb+KZMqy7qRwqJthVPdVnzl7QVfbIlthVOtUjt1Xp+RLKdec7Qz4JzswC1+2OzmI9nJdBn+fB6b+WgnMt0tN/PdSEa7uWlCxy2nh32M/7uu/XbCnzPl7EMTlbaX1mL7Vbbn5hnNzTsP+MejlutG3LjY8pZqrZ22NRPU8cobx3Ulb4uRzP8Ez45vpiKLt/qtV8Nux7XwTtSf3GR7q78zWU8f5aHBaUT59lZiVi/z/xiMHH7y7oLWeiHyGOtvXU7XMhu2DNg2BQrjXLHCmOGl+TL4lH8N980F0O2rDAv3w77+wz63qdVYbXshN67t4YukicLthcfy9S72frQtRAmckHfhOpr/SbQax3/mJsBalrauWYmgG/l9mPFpODPN9fVM7rK+PQYP8hHbX3MaLYtJ3hdNB9uL2b6/ynp0K79zD1DL7W2+zLsqcvtf9PqWMl1MWn15AKfkXbjm+WzaPDybgTx8HIIxb7KBab5R5L8K596Dh0eZ5n7RdLk9e8q+TpTXOdbF9q7k1/7hsQS9LKQr/OBRuA7FFnpdv74nTyHDFs7V4VNYX1fdAoNfJg5i3L7FA6IeVwTR1uo60d0RVbe3fX6ShQnEFj0CTuH2jrpUtvLv0+TwZatSlMDpmNaDP5ZTW5Jmd7gAv9yZxkziirK7Qt/RFfRCmVfKgzsaRuGD2ncL2PXHV19lmTzVlw2OefQamyrfXvJYHh/vftw9AuTxK1yN4ENpAzScUh8u9XANAz45xbbnQiB6XDnoEtsyU8PbluqEcp158zR9fcm3mnBFv1GgsG9sF8VEZHmqst3ffXvAmRCuAKDg29wtAAB9QrgCgALCFQAUEK4AoIBwBQAFhCsAKCBcAUAB4QoACvwJ16ySJrGJoegA9Ik/4ZoauzSaNnbIOpnKzXf5W0o3QtcJC/h99+0BZ+J5t0AwrqhMb078d+o/sUBhyIVjtL0GFSDqbC+xrZqFEIFzM60/bwWjK51geMGY/YhOmUMOJocZ1B5yMBg1qpvXX22kquVumh7eUW0kLju0Yex5NxrZad9roA2Pw/XMQ85lBpsNhNhjLhDKAiufC6Ci8OowXK3S7aVpv76EYBxZRhiEL/ztFlj9laBHoIMOgdTp536qe4r9kwoUmjmenxb2DWjcJVOvIKI9tiOhEAG8EYasZ8JWa8NT0k5ktRrTjxW2LMPXEA4EXTZVGfk/ONVW3l58sPDC49/t62vTxQKcg58t16jVWlggr+88LVAYq5TrWp25F7W6e3221tbkcy6bF4bXhj+8DNfVmzkd7fL2q666BX5IgcJIcZiXq7I9N8/sSpYnOgZAZ0zrwS/uVDv/NFK9hlYk85Q/OBWO9k37bgG7/vjqqyyTp9Ky9jXHN9jiCn7V15fd9RB2OdBNgB7zLlyD8Mz/UKqHa7zPcT/FtheGf/C4YtBZiW2ZqWEfdPVQTvej6gXr0WuLJvcaCVf0HzW0+sZ2UVCgEPAe4QoACjz/81cA6CfCFQAUEK4AoIBwBQAFhCsAKCBcAUAB4QoACgjXn8SNodCgegCA2rwLVzuQR3KAlTPWY4rKrOQMonq0r1RRBH4Mr8J1dX8RjJAUDle3221kPlrIpO7oVR2w+3IxnMk6/DktGM1JZL6J9nUp08WEgAV+CI/CdSv/7DD/iZHvB/L7diSy/pKGo941YoNzshiZ4LThHj6YEBROHM3/k8MwpWN5WU5FFk+clgM/gEfhOpBfdrDUxVuiG2DzZdqOo0s5ZfUPW55kt/uIBWdKWO7lKj2Qqyv7kj/+qWsN25ZtYnzZjD7SxPN2yu4aSXZL5HSfVFlXqsosjW+gnFfdAuMXc2otC5m4D/hWnq8vTAty2r+BlN0g2Rn1nsLBtD+LimrZroOnS9mEXR/L6Vpmd4duDxeYk89Yd4Odxx6TZAgfdUssRSYTO8j4QbV1reQ+WFE4z0Yun87Yzw34wnxgPJMcU7STIT0zx2g1U+n4qDnjiuYOIh1UMC0c6Du9zcS68pZPP54zX5frAlDIq5ZrcJo7lNfbsBVl0mgxMaeqbS9oxepCJaa+tYjzuhtkKJeu6znsb8idL6bqumQsf8w3yHo2NMee27iAqvwJ1+2z3LmLRBv5iDo7bSjai0Trmfzt03lqXt9qldDroaCPOeyicGW86RYAynjVcrWyLxK1dHRRJ5yatohz+la376/ZfbFV5fbZbiS4rheuuErfbtV1xYxfTGt+MzevYCFvpCtQzLRIPBH0/aX7JIOaWYd6TMHPzWo71Zdfy+l4P8L9L+gkdssU9rlmv770MbCO5tv3K9dcl10uvk+p/QGQzaNwtcKASkwloaIgKLCX3o/j7Qb7cpjKLgq5+UvC1TrafnqZUGL7dp6MirVV1pV+HdQFBMpRQwsAFHjX5woAPiBcAUAB4QoACghXAFBAuAKAAsIVABQQrgCggHAFAAWEKwAoIFwBQIF34ZosXXIh12ceYLRv+wOgH7wK16Pqr5u5yGx4tkDr2/6UckMrMuA1cAr+hOv2WZ4WIqP5n0P118GDPLqxsv+efvDmvu0PgF7xrlsgPVj2+MakmXxK0bjQmurvT1BYMd6VkK6mGlWBPXQ5xEb+Tw/snV44p1KrW6crUBhVE4h3YZTsE9Vfgdq4oGWlwiM5dXkabUNsKF+PYTeCmTbzkSwmGdtYTGT4ehtWgX1xreOgWqscuiF2G5l/TmIBm1+p1VURWNrgH+2rvQblcsr2ieqvQCPmA+OJcNT/1GDOwUDO5xgZv6P9cQNYJwegDtaRHATcPOoGCj8aqNoNph3NW1KptWoVgcQ+lawTQCaPWq4DefhYynQ9k2GsZfkmtjV2Dk33J3UKblqF6/CZhNGlJKpYhcUNXbXb2PaCU/2oG6JppdaifaL6K9CEZ90CY3kJT12j6eXGPn4lrQqqNu4WqLs/5hT7Yiizq+VhGVfwrzrTmkxsL5g+JCqIW79Sa/k+Uf0VqM/zPlfT4rKX7Kc3rk+yscGDfETBcjQdgqtcyf6Erc/pTYO9rVLRNaZypdYa+0T1V6A6r8N1dW9aXOupLF8OweCuip/p9DVrfxLCgFzsk8mE8V1Ot8CR6PT8Lvna7N0DUQnw+L+tzVeylLcrQ76Wr034s1W2TyXrXN3bOxroLgCOmNaZJ8ILSGaX91NGGdLTXeCqtj9H3EWlwzLT5fGFKvcaciq6llVrDV7/YUrvUvz5/UWqkn0qWudyavfnHBcUgX6j+isAKOA+VwBQQLgCgALCFQAUEK4AoIBwBQAFhCsAKCBcAUAB4QoACghXAFBAuAKAAj/DNRoiMKfeSLoia958AKDFu3B1o17lDTBt2GANqpJEQwYuZbqIl0IBAH1ehasNzsnC1oDayDxzhOmV/J2tZTT/LzYG61hellORxZPesHipooGVS2snlmsybF9UQaDislmDgseHE6wgeVZQtt1o/46n6uXH7WDedpmsbUXP2anuAN4F6236fjo562197KvvL+2IfvAqXIMR8QsGrw4Hfk5XZM0cx7Qz5pc+XjTQBPnRmKuZzHJPl2EBwnCU/7u6QXcnM/PK6lQyEDP3oVVvpo8HqToWuDsr2BdNtFPZQOK2FE5sW3Zyg22P5PZ3+VaDIH+Tm5xqDStz4BfToILCcrqQScVUKV5v0/ezfH+bHvvy/V3sK1QExSWpFNEH3+uCVnpw6EjNUfzrsaVeguqszvhGzMexQpCb5WIfLleSe/0l1fPfttJF5o+34c/awu39Vz2Ms6zMStbTx0rVHYIv09ixTVjJmz2L+RM8647f4q1SqBSvt+n7Wbbe5srXe/idH/yyv+nog+8Vrl1JnWbtpyqnca71nBHwhUrKw2TYPj/Jp+3+qLUdK6qDFUyVTyHDs4LXu9jxqHv+aU6Nn2KB2Eq4P3vu7CQq1NihRu9nnobHvtBYblxtM9tajVqx3Qc86iNcs4xf3CnW0VThNK5Oy+wQ4kNzej+XTV55mDQTUnezK3mstJGYVK2w4BSyrN805M4KRG7/i5YPLhTWCYjt+6usR7dSoUegN2q9n0XaHPsStraZ6xa5mMhiNJcuvrvQ3vcK17y+1by+2I7ZvrHJZ42QjIX45vZVhqUXiAL2A2+af61bJ4OHx8qnvIF4VVvbYorX3ioTXGycPrbrVjil2u9nDfWPfR7TWjVf0E+XG/d7tLyypd7pc+2D7xWuOX2rrsVU59SuQbeA/SAOTWtyWeMCUVz1D5vtazQnmLNhsE/utrTgdLPeVe2ajk67t/LPfGONKh5U243RaasqfK/3XMu6ZYn1mLbv58ms3mRhfnOis5jxizmjoDpvL3yzboGgNZW8uhu0mEyTaX9qV1ohtma3gF1fcBX9uK/LbSvr3NnemhN/3H1IDl8AucuZLbzE9ym8+m6vQn+ELzBvWft4/GEXeOajGFXVzt+mMfgtt6O1vL6HB237Lq/rw1X/wmXD92B0+/vo+BUvV2Qol7H9WdlvnFifdfP1BsvWfj9L2OXii9U69qViX3qJPuLwVrjG60Ur5gPqjaPKp/spWX00Xa10X+U0FDzfUcXSzXw3im1rP4VVWd220iVYnXT12IzXkLlcitt+xWXT+5pVObZom6nl47MWLRu8b9Nd1rOF20xVpQ2m2GtN7E9y/Y3X2/j9NOqst86xLzkO6c/FYTXh71jeeqHKq3D1jvtAZYdKoabLWT9lm0VYL3qAuwUU2b7eJheemi5n/ZRtFmG96IMLm7DhvwEAHaHlCgAKCFcAUEC4AoACwhUAFBCuAKCAcAUABYQrACjwM1yjkhlFfzNdZR4AUOJduLoBLgoKFFpV5gEATV6Fqxtfs7BAYbV5OteqoF3NIoMx9rUetltx+cS+Vt1mi0KD0RlEfFIqzNdJIUErtd56Jz8569U8Dvvn7MRYrn3hVbiWFig0qszTLfOL3bCgndWsyGAQrPWKBVpmXxsVRWxXaFDMfHOVwnwahQTtepsV/Cter6VxHMweNyzUCF1c0GqteUE7+0F2RQVqFxlsWiywbVHEg87KnxQ4XyHBw7i6dQr+la+3meL1Ni/UCF2Ea5YGlQj2ahS0a1xkMCxb06pYoD3Vr1kUcc+c4tYrNKhRmC+ls0KCmgX/FI5D+Luwp1WoEbURrllOUaDQBFSjIoNWm2KB+y+OmkURY+wQeZULDSoW5ovrsiWtUvDvRMcB/UG4dsj2jVUtaNe+yGDDYoENiyIetCs02F1hvoM6x72caa2aLx/tgn8axwH9QrhmadAtYD/g1QvatSwy2LJYYKTJB7zzQoMt1TvuFfhW8E+5UCOa+5Hh6u6DLWqxqRcobF5k0GlaLNDeDhR/vHJRxEj9QoP28fjDXRbms8t2XUgwkFfwr/l69Y5DUaFGChSelflweyNdiO0w5Rdry5rHFYOL/dyKq3+U3paZqhS0i7h1JPendLnUduOz5i/brihicGyzaz3lLps+Pl0V5mtz3BsX/OtwfzssUJhcd/z9oUDhOXkVrt5xv/QNCs81Xc76KdsswnrRA/S5KmpaeK5Nwbqfss0irBd9QIFCAFBAyxUAFBCuAKCAcAUABYQrACggXAFAAeEKAAoIVwBQ4Ge4RiUzMv9mOhjVKD7gCn9aDeDUvAtXN8BFQfFBW/JCwhIddlraofgmBCyA0/IqXN24nSXFB+1Ax/FhPcd/grpDlcY6bSxqLXdYPK5NQbvEkIk1x2tNDbeoW2yxReHDkP2dOCxX57XmvGdtjrtT8LvQ6thWXy8NiX7wKlxPX3ywXPDh1ioe16SgnfkQNipCaJllT1pssV3hQzeWa+0ijeXvWbPjXrbe5se2fL3NCipC1/e/oBWWRJlGA2d2rH/F49oUITxHscWk6uVamhZpLHvPmiteb/8KKkLXNw/XsAhf3ZHzG1QiyNS6eFzbgnYtihBaNYr+NS62GGdOySsXPgyPbbsijXkUCgmm1Ti2xTQLKqKNbx2uq/uhzNbmw1q3ddOiQGFn2hS02385NC9CaJ2k2GKMHXqvcuHDNkUai1BQER35tuFq7yowX+LmW7xffbRN1ap31boIoc3LUxZbtJoUPmxYpLEGCiqiqW8Zru6X1wVr8s6ByrrqFuhB8bhmRQhPWGwxVLvwYUdFGk+t3rGtwLeCij/ItwvX4JfXtIAKgtXdK1vUmuusW6CoeFy4Hznnsfa5+FOVC9rZW4nij9csQmifP2mxRad+4cPGRRpL2OXii/leUNE8QJHCczEfCG+kC8cdpqhY23JnzgwznrfToaCbKwYXL/DWRuPiceF+5BWPSyxnpsoF7VoUIUxvM5qUiy0G72t2Dak6+xufrXC5cxQSbHNsS37H0p+L5GooUnguXoXrt+I+bA2L0jVdlm2249t6cVbf/Fas/mpTlK7psmyzHd/Wi/OiQCEAKKDlCgAKCFcAUEC4AoACwhUAFBCuAKCAcAUABYQrACggXAFAAeEKAAoIVwBQQLgCgALCFQAUEK4AoIBwBQAFhCsAKCBcAUAB4QoACghXAFBAuAKAAsIVABQQrgCggHAFAAWEKwAoIFwBQAHhCgAKCFcAUEC4AoACwhUAFBCuAKCAcAUABYQrACggXAFAAeEKAAoIVwBQQLgCgALCFQAUEK4AoIBwBQAFhCsAKCBcAUAB4QoACghXAFBAuAKAAsIVABQQrgCggHAFAAWEKwAoIFwBQAHhCgAKCFcAUEC4AoACwhUAFBCuAKCAcAUABYQrACggXAFAAeEKAAoIVwBQQLgCgALCFQAUEK4AoIBwBYDOifw/y+pwuTOhQQYAAAAASUVORK5CYII=;" vertex="1" parent="1">
          <mxGeometry x="-770" y="390" width="520" height="577.61" as="geometry" />
        </mxCell>
      </root>
    </mxGraphModel>
  </diagram>
</mxfile>
